<?xml version="1.0" encoding="UTF-8"?>
<svg id="Layer_1" data-name="Layer 1" xmlns="http://www.w3.org/2000/svg" xmlns:xlink="http://www.w3.org/1999/xlink" viewBox="0 0 620.67 306.78">
  <defs>
    <style>
      .cls-1 {
        letter-spacing: -.01em;
      }

      .cls-2, .cls-3, .cls-4, .cls-5, .cls-6 {
        stroke-width: .75px;
      }

      .cls-2, .cls-7, .cls-8, .cls-4, .cls-9, .cls-10, .cls-11, .cls-12, .cls-13, .cls-14, .cls-15, .cls-16 {
        stroke: #231f20;
      }

      .cls-2, .cls-8 {
        fill: #d1d3d4;
      }

      .cls-2, .cls-8, .cls-4, .cls-11, .cls-12, .cls-14, .cls-15 {
        stroke-linejoin: round;
      }

      .cls-3, .cls-7, .cls-4, .cls-9, .cls-17, .cls-5, .cls-11, .cls-12, .cls-13, .cls-14, .cls-15, .cls-16 {
        fill: none;
      }

      .cls-3, .cls-9, .cls-10, .cls-5, .cls-13, .cls-6, .cls-16 {
        stroke-miterlimit: 10;
      }

      .cls-3, .cls-6 {
        stroke: #009444;
      }

      .cls-7 {
        stroke-width: 1.44px;
      }

      .cls-18 {
        font-family: AtkinsonHyperlegibleNext-Light, 'Atkinson Hyperlegible Next';
        font-weight: 300;
      }

      .cls-18, .cls-19, .cls-20, .cls-21, .cls-22, .cls-23 {
        fill: #231f20;
      }

      .cls-18, .cls-20, .cls-21, .cls-22 {
        font-size: 14px;
      }

      .cls-24 {
        fill: url(#_10_lpi_20_-2);
      }

      .cls-25 {
        letter-spacing: -.02em;
      }

      .cls-8, .cls-12 {
        stroke-width: 2px;
      }

      .cls-4, .cls-11, .cls-14 {
        stroke-linecap: round;
      }

      .cls-9 {
        stroke-dasharray: 4;
      }

      .cls-9, .cls-13, .cls-16 {
        stroke-width: .5px;
      }

      .cls-26, .cls-10, .cls-6 {
        fill: #fff;
      }

      .cls-20, .cls-21, .cls-27, .cls-22 {
        font-style: italic;
      }

      .cls-20, .cls-27, .cls-22 {
        font-family: AtkinsonHyperlegibleNext-RegularItalic, 'Atkinson Hyperlegible Next';
      }

      .cls-21 {
        font-family: TimesNewRomanPS-ItalicMT, 'Times New Roman';
      }

      .cls-28 {
        font-family: ArialMT, Arial;
      }

      .cls-28, .cls-27, .cls-29, .cls-23 {
        font-size: 16px;
      }

      .cls-28, .cls-30, .cls-29 {
        fill: #009444;
      }

      .cls-27 {
        letter-spacing: -.01em;
      }

      .cls-27, .cls-31 {
        fill: #1476bd;
      }

      .cls-5 {
        stroke: #1476bd;
      }

      .cls-32 {
        letter-spacing: -.02em;
      }

      .cls-11 {
        stroke-width: 1.27px;
      }

      .cls-29 {
        font-family: AtkinsonHyperlegibleNext-Regular, 'Atkinson Hyperlegible Next';
      }

      .cls-33 {
        letter-spacing: 0em;
      }

      .cls-22 {
        letter-spacing: 0em;
      }

      .cls-23 {
        font-family: AtkinsonHyperlegibleNext-Medium, 'Atkinson Hyperlegible Next';
        font-weight: 500;
      }

      .cls-14 {
        stroke-width: 3px;
      }

      .cls-34 {
        letter-spacing: .01em;
      }

      .cls-15 {
        stroke-linecap: square;
        stroke-width: 1.69px;
      }

      .cls-16 {
        stroke-dasharray: 4.04 4.04;
      }

      .cls-35 {
        fill: url(#_10_lpi_20_);
      }
    </style>
    <pattern id="_10_lpi_20_" data-name="10 lpi 20%" x="0" y="0" width="72" height="72" patternTransform="translate(4398.0272 -8575.668) rotate(-45.5484) scale(.9365 1.0446) skewX(14.0582)" patternUnits="userSpaceOnUse" viewBox="0 0 72 72">
      <g>
        <rect class="cls-17" width="72" height="72"/>
        <g>
          <line class="cls-7" x1="71.75" y1="68.4" x2="144.25" y2="68.4"/>
          <line class="cls-7" x1="71.75" y1="54" x2="144.25" y2="54"/>
          <line class="cls-7" x1="71.75" y1="39.6" x2="144.25" y2="39.6"/>
          <line class="cls-7" x1="71.75" y1="25.2" x2="144.25" y2="25.2"/>
          <line class="cls-7" x1="71.75" y1="10.8" x2="144.25" y2="10.8"/>
          <line class="cls-7" x1="71.75" y1="61.2" x2="144.25" y2="61.2"/>
          <line class="cls-7" x1="71.75" y1="46.8" x2="144.25" y2="46.8"/>
          <line class="cls-7" x1="71.75" y1="32.4" x2="144.25" y2="32.4"/>
          <line class="cls-7" x1="71.75" y1="18" x2="144.25" y2="18"/>
          <line class="cls-7" x1="71.75" y1="3.6" x2="144.25" y2="3.6"/>
        </g>
        <g>
          <line class="cls-7" x1="-.25" y1="68.4" x2="72.25" y2="68.4"/>
          <line class="cls-7" x1="-.25" y1="54" x2="72.25" y2="54"/>
          <line class="cls-7" x1="-.25" y1="39.6" x2="72.25" y2="39.6"/>
          <line class="cls-7" x1="-.25" y1="25.2" x2="72.25" y2="25.2"/>
          <line class="cls-7" x1="-.25" y1="10.8" x2="72.25" y2="10.8"/>
          <line class="cls-7" x1="-.25" y1="61.2" x2="72.25" y2="61.2"/>
          <line class="cls-7" x1="-.25" y1="46.8" x2="72.25" y2="46.8"/>
          <line class="cls-7" x1="-.25" y1="32.4" x2="72.25" y2="32.4"/>
          <line class="cls-7" x1="-.25" y1="18" x2="72.25" y2="18"/>
          <line class="cls-7" x1="-.25" y1="3.6" x2="72.25" y2="3.6"/>
        </g>
        <g>
          <line class="cls-7" x1="-72.25" y1="68.4" x2=".25" y2="68.4"/>
          <line class="cls-7" x1="-72.25" y1="54" x2=".25" y2="54"/>
          <line class="cls-7" x1="-72.25" y1="39.6" x2=".25" y2="39.6"/>
          <line class="cls-7" x1="-72.25" y1="25.2" x2=".25" y2="25.2"/>
          <line class="cls-7" x1="-72.25" y1="10.8" x2=".25" y2="10.8"/>
          <line class="cls-7" x1="-72.25" y1="61.2" x2=".25" y2="61.2"/>
          <line class="cls-7" x1="-72.25" y1="46.8" x2=".25" y2="46.8"/>
          <line class="cls-7" x1="-72.25" y1="32.4" x2=".25" y2="32.4"/>
          <line class="cls-7" x1="-72.25" y1="18" x2=".25" y2="18"/>
          <line class="cls-7" x1="-72.25" y1="3.6" x2=".25" y2="3.6"/>
        </g>
      </g>
    </pattern>
    <pattern id="_10_lpi_20_-2" data-name="10 lpi 20%" patternTransform="translate(5198.3769 -8513.4872) rotate(-43.6242) scale(.9682 1.0806) skewX(18.0237)" xlink:href="#_10_lpi_20_"/>
  </defs>
  <polygon class="cls-2" points="116.33 260.48 44.33 224.48 188.33 80.48 260.33 116.48 116.33 260.48"/>
  <g>
    <polygon class="cls-35" points="152.09 100.94 152.57 59.9 164.54 60.04 164.06 101.08 152.09 100.94"/>
    <polygon class="cls-11" points="187.5 80.83 164.45 68.25 164.16 92.87 187.5 80.83"/>
    <line class="cls-15" x1="164.54" y1="60.04" x2="164.06" y2="101.08"/>
  </g>
  <g>
    <line class="cls-13" x1="224.33" y1="89.48" x2="55.44" y2="258.37"/>
    <polygon class="cls-19" points="55.13 256.07 55.88 257.93 57.75 258.68 53.33 260.48 55.13 256.07"/>
  </g>
  <g>
    <line class="cls-13" x1="224.33" y1="89.48" x2="293.66" y2="124.14"/>
    <polygon class="cls-19" points="291.58 125.17 293.11 123.87 293.24 121.86 296.33 125.48 291.58 125.17"/>
  </g>
  <g>
    <line class="cls-13" x1="224.33" y1="89.48" x2="224.33" y2="20.46"/>
    <polygon class="cls-19" points="226.18 21.87 224.33 21.08 222.48 21.87 224.33 17.48 226.18 21.87"/>
  </g>
  <polygon class="cls-8" points="260.33 62.48 188.33 80.48 44.33 224.48 116.33 206.48 260.33 62.48"/>
  <g>
    <line class="cls-13" x1="224.33" y1="89.48" x2="222.92" y2="90.89"/>
    <line class="cls-16" x1="220.06" y1="93.75" x2="107.18" y2="206.64"/>
    <line class="cls-13" x1="105.75" y1="208.06" x2="104.33" y2="209.48"/>
  </g>
  <line class="cls-9" x1="224.33" y1="89.48" x2="260.33" y2="107.48"/>
  <line class="cls-9" x1="224.33" y1="89.48" x2="224.33" y2="71.48"/>
  <polyline class="cls-12" points="44.33 224.48 116.33 260.48 260.33 116.48 224.33 98.48"/>
  <text class="cls-21" transform="translate(224.33 8.48)"><tspan x="0" y="0">y</tspan></text>
  <text class="cls-21" transform="translate(296.33 116.48)"><tspan x="0" y="0">x</tspan></text>
  <text class="cls-21" transform="translate(53.33 269.48)"><tspan x="0" y="0">z</tspan></text>
  <g>
    <polyline class="cls-4" points="486.33 101.96 486.33 169.48 553.86 169.48"/>
    <polygon class="cls-19" points="483.56 104.06 486.33 102.88 489.11 104.06 486.33 97.48 483.56 104.06"/>
    <polygon class="cls-19" points="551.75 172.26 552.93 169.48 551.75 166.7 558.33 169.48 551.75 172.26"/>
  </g>
  <text class="cls-21" transform="translate(474.33 181.48)"><tspan x="0" y="0">C</tspan></text>
  <text class="cls-18" transform="translate(556.12 81.96)"><tspan x="0" y="0">1</tspan></text>
  <text class="cls-18" transform="translate(398.79 202.82)"><tspan x="0" y="0">2</tspan></text>
  <text class="cls-18" transform="translate(561.85 212.39)"><tspan x="0" y="0">3</tspan></text>
  <line class="cls-6" x1="567.33" y1="196.48" x2="594.33" y2="196.48"/>
  <line class="cls-3" x1="567.33" y1="88.48" x2="594.33" y2="88.48"/>
  <g>
    <line class="cls-3" x1="585.33" y1="95.12" x2="585.33" y2="189.83"/>
    <polygon class="cls-30" points="583.15 96.61 585.33 88.48 587.51 96.61 583.15 96.61"/>
    <polygon class="cls-30" points="583.15 188.35 585.33 196.48 587.51 188.35 583.15 188.35"/>
  </g>
  <line class="cls-3" x1="414.33" y1="205.48" x2="414.33" y2="250.48"/>
  <line class="cls-3" x1="558.33" y1="205.48" x2="558.33" y2="250.48"/>
  <g>
    <line class="cls-3" x1="420.98" y1="241.48" x2="551.69" y2="241.48"/>
    <polygon class="cls-30" points="422.46 243.66 414.33 241.48 422.46 239.3 422.46 243.66"/>
    <polygon class="cls-30" points="550.2 243.66 558.33 241.48 550.2 239.3 550.2 243.66"/>
  </g>
  <line class="cls-3" x1="405.33" y1="187.48" x2="379.25" y2="151.48"/>
  <line class="cls-3" x1="549.33" y1="79.48" x2="522.33" y2="43.48"/>
  <g>
    <line class="cls-3" x1="388.15" y1="153.12" x2="521.52" y2="53.09"/>
    <polygon class="cls-30" points="390.65 153.97 382.83 157.1 388.03 150.48 390.65 153.97"/>
    <polygon class="cls-30" points="521.64 55.72 526.83 49.1 519.02 52.24 521.64 55.72"/>
  </g>
  <text class="cls-21" transform="translate(553.51 181.48)"><tspan x="0" y="0">x</tspan></text>
  <text class="cls-21" transform="translate(474.33 106.48)"><tspan x="0" y="0">y</tspan></text>
  <text class="cls-29" transform="translate(474.33 259.48)"><tspan x="0" y="0">4a</tspan></text>
  <text class="cls-29" transform="translate(591.22 151.48)"><tspan x="0" y="0">3a</tspan></text>
  <text class="cls-29" transform="translate(434.76 109.75) rotate(-35.93)"><tspan x="0" y="0">5a</tspan></text>
  <g>
    <polygon class="cls-24" points="8.09 244.93 8.58 203.89 21.38 204.04 20.89 245.08 8.09 244.93"/>
    <polygon class="cls-11" points="44.33 224.83 21.28 212.25 20.99 236.87 44.33 224.83"/>
    <line class="cls-15" x1="21.38" y1="204.04" x2="20.89" y2="245.08"/>
  </g>
  <circle class="cls-10" cx="44.33" cy="224.48" r="4.5"/>
  <circle class="cls-10" cx="188.33" cy="80.48" r="4.5"/>
  <g>
    <line class="cls-5" x1="260.33" y1="116.48" x2="290.39" y2="131.51"/>
    <polygon class="cls-31" points="288.09 132.79 296.33 134.48 290.04 128.89 288.09 132.79"/>
  </g>
  <g>
    <line class="cls-5" x1="116.33" y1="260.48" x2="146.39" y2="275.51"/>
    <polygon class="cls-31" points="144.09 276.79 152.33 278.48 146.04 272.89 144.09 276.79"/>
  </g>
  <line class="cls-5" x1="152.33" y1="278.48" x2="296.33" y2="134.48"/>
  <g>
    <line class="cls-5" x1="242.33" y1="134.48" x2="272.39" y2="149.51"/>
    <polygon class="cls-31" points="270.09 150.79 278.33 152.48 272.04 146.89 270.09 150.79"/>
  </g>
  <g>
    <line class="cls-5" x1="224.33" y1="152.48" x2="254.39" y2="167.51"/>
    <polygon class="cls-31" points="252.09 168.79 260.33 170.48 254.04 164.89 252.09 168.79"/>
  </g>
  <g>
    <line class="cls-5" x1="206.33" y1="170.48" x2="236.39" y2="185.51"/>
    <polygon class="cls-31" points="234.09 186.79 242.33 188.48 236.04 182.89 234.09 186.79"/>
  </g>
  <g>
    <line class="cls-5" x1="188.33" y1="188.48" x2="218.39" y2="203.51"/>
    <polygon class="cls-31" points="216.09 204.79 224.33 206.48 218.04 200.89 216.09 204.79"/>
  </g>
  <g>
    <line class="cls-5" x1="170.33" y1="206.48" x2="200.39" y2="221.51"/>
    <polygon class="cls-31" points="198.09 222.79 206.33 224.48 200.04 218.89 198.09 222.79"/>
  </g>
  <g>
    <line class="cls-5" x1="152.33" y1="224.48" x2="182.39" y2="239.51"/>
    <polygon class="cls-31" points="180.09 240.79 188.33 242.48 182.04 236.89 180.09 240.79"/>
  </g>
  <g>
    <line class="cls-5" x1="134.33" y1="242.48" x2="164.39" y2="257.51"/>
    <polygon class="cls-31" points="162.09 258.79 170.33 260.48 164.04 254.89 162.09 258.79"/>
  </g>
  <line class="cls-3" x1="161.15" y1="282.89" x2="196.68" y2="300.65"/>
  <line class="cls-3" x1="305.15" y1="138.89" x2="340.84" y2="156.73"/>
  <g>
    <line class="cls-3" x1="193.03" y1="291.78" x2="327.63" y2="157.18"/>
    <polygon class="cls-30" points="195.62 292.27 188.33 296.48 192.54 289.19 195.62 292.27"/>
    <polygon class="cls-30" points="328.12 159.77 332.33 152.48 325.04 156.69 328.12 159.77"/>
  </g>
  <text class="cls-29" transform="translate(268.16 235.96)"><tspan x="0" y="0">L</tspan></text>
  <text class="cls-27" transform="translate(227.07 215.48)"><tspan x="0" y="0">w</tspan></text>
  <text class="cls-22" transform="translate(39.83 215.48)"><tspan x="0" y="0">A</tspan></text>
  <text class="cls-20" transform="translate(184.93 73)"><tspan x="0" y="0">B</tspan></text>
  <g>
    <line class="cls-26" x1="522.33" y1="115.48" x2="513.72" y2="103.1"/>
    <g>
      <line class="cls-3" x1="518.54" y1="110.02" x2="513.72" y2="103.1"/>
      <polygon class="cls-30" points="519.48 107.56 522.33 115.48 515.9 110.05 519.48 107.56"/>
    </g>
  </g>
  <g>
    <line class="cls-26" x1="530.96" y1="127.88" x2="522.35" y2="115.5"/>
    <g>
      <line class="cls-3" x1="530.96" y1="127.88" x2="526.15" y2="120.96"/>
      <polygon class="cls-30" points="528.78 120.93 522.35 115.5 525.21 123.42 528.78 120.93"/>
    </g>
  </g>
  <text class="cls-28" transform="translate(532.51 137.72)"><tspan x="0" y="0">t</tspan></text>
  <text class="cls-28" transform="translate(518.03 223.48)"><tspan x="0" y="0">t</tspan></text>
  <g>
    <line class="cls-26" x1="518.03" y1="196.46" x2="518.03" y2="181.39"/>
    <g>
      <line class="cls-3" x1="518.03" y1="189.82" x2="518.03" y2="181.39"/>
      <polygon class="cls-30" points="520.21 188.33 518.03 196.46 515.85 188.33 520.21 188.33"/>
    </g>
  </g>
  <g>
    <line class="cls-26" x1="518.03" y1="211.57" x2="518.03" y2="196.49"/>
    <g>
      <line class="cls-3" x1="518.03" y1="211.57" x2="518.03" y2="203.14"/>
      <polygon class="cls-30" points="520.21 204.62 518.03 196.49 515.85 204.62 520.21 204.62"/>
    </g>
  </g>
  <text class="cls-23" transform="translate(425.86 286.49)"><tspan x="0" y="0">C</tspan><tspan class="cls-1" x="10.42" y="0">R</tspan><tspan class="cls-33" x="20.32" y="0">OSS S</tspan><tspan class="cls-32" x="65.5" y="0">E</tspan><tspan class="cls-34" x="74.45" y="0">C</tspan><tspan x="85.1" y="0">T</tspan><tspan class="cls-25" x="94.4" y="0">I</tspan><tspan x="100.51" y="0">ON</tspan></text>
  <polyline class="cls-14" points="558.33 88.48 414.33 196.48 558.33 196.48"/>
</svg>