<?xml version="1.0" encoding="UTF-8"?>
<svg id="a" data-name="Layer 1" xmlns="http://www.w3.org/2000/svg" xmlns:xlink="http://www.w3.org/1999/xlink" viewBox="0 0 1064.87 409.33">
  <defs>
    <style>
      .c, .d {
        stroke-miterlimit: 10;
      }

      .c, .d, .e, .f, .g, .h, .i, .j {
        fill: none;
      }

      .c, .e {
        stroke: #009444;
      }

      .c, .e, .j {
        stroke-width: 1.35px;
      }

      .k, .l, .m, .n, .o, .p {
        fill: #231f20;
      }

      .l, .q, .n, .o, .r {
        font-size: 21.67px;
      }

      .l, .r {
        font-family: AtkinsonHyperlegibleNext-Medium, 'Atkinson Hyperlegible Next';
        font-weight: 500;
      }

      .s {
        stroke-width: 3.61px;
      }

      .s, .d, .h, .t, .i, .j {
        stroke: #231f20;
      }

      .s, .e, .g, .h, .t, .j {
        stroke-linejoin: round;
      }

      .s, .t {
        fill: #e6e7e8;
      }

      .d, .g {
        stroke-width: 5.42px;
      }

      .u, .r {
        fill: #3a54a4;
      }

      .m, .n, .o, .p {
        font-family: AtkinsonHyperlegibleNext-RegularItalic, 'Atkinson Hyperlegible Next';
        font-style: italic;
      }

      .m, .p {
        font-size: 18.06px;
      }

      .g {
        stroke: #3a54a4;
      }

      .h {
        stroke-width: .9px;
      }

      .v {
        letter-spacing: -.03em;
      }

      .w {
        letter-spacing: .02em;
      }

      .q {
        font-family: AtkinsonHyperlegibleNext-Regular, 'Atkinson Hyperlegible Next';
      }

      .q, .x {
        fill: #009444;
      }

      .n {
        letter-spacing: -.01em;
      }

      .y {
        letter-spacing: -.01em;
      }

      .z {
        letter-spacing: -.02em;
      }

      .aa {
        fill: url(#b);
      }

      .t {
        stroke-width: 2.71px;
      }

      .i {
        stroke-width: .72px;
      }

      .p {
        letter-spacing: -.01em;
      }

      .ab {
        letter-spacing: .01em;
      }
    </style>
    <pattern id="b" data-name="10 lpi 10%" x="0" y="0" width="72" height="72" patternTransform="translate(-637.2 -12738.29) rotate(-45) scale(1.08)" patternUnits="userSpaceOnUse" viewBox="0 0 72 72">
      <g>
        <rect class="f" width="72" height="72"/>
        <g>
          <line class="i" x1="71.75" y1="68.4" x2="144.25" y2="68.4"/>
          <line class="i" x1="71.75" y1="54" x2="144.25" y2="54"/>
          <line class="i" x1="71.75" y1="39.6" x2="144.25" y2="39.6"/>
          <line class="i" x1="71.75" y1="25.2" x2="144.25" y2="25.2"/>
          <line class="i" x1="71.75" y1="10.8" x2="144.25" y2="10.8"/>
          <line class="i" x1="71.75" y1="61.2" x2="144.25" y2="61.2"/>
          <line class="i" x1="71.75" y1="46.8" x2="144.25" y2="46.8"/>
          <line class="i" x1="71.75" y1="32.4" x2="144.25" y2="32.4"/>
          <line class="i" x1="71.75" y1="18" x2="144.25" y2="18"/>
          <line class="i" x1="71.75" y1="3.6" x2="144.25" y2="3.6"/>
        </g>
        <g>
          <line class="i" x1="-.25" y1="68.4" x2="72.25" y2="68.4"/>
          <line class="i" x1="-.25" y1="54" x2="72.25" y2="54"/>
          <line class="i" x1="-.25" y1="39.6" x2="72.25" y2="39.6"/>
          <line class="i" x1="-.25" y1="25.2" x2="72.25" y2="25.2"/>
          <line class="i" x1="-.25" y1="10.8" x2="72.25" y2="10.8"/>
          <line class="i" x1="-.25" y1="61.2" x2="72.25" y2="61.2"/>
          <line class="i" x1="-.25" y1="46.8" x2="72.25" y2="46.8"/>
          <line class="i" x1="-.25" y1="32.4" x2="72.25" y2="32.4"/>
          <line class="i" x1="-.25" y1="18" x2="72.25" y2="18"/>
          <line class="i" x1="-.25" y1="3.6" x2="72.25" y2="3.6"/>
        </g>
        <g>
          <line class="i" x1="-72.25" y1="68.4" x2=".25" y2="68.4"/>
          <line class="i" x1="-72.25" y1="54" x2=".25" y2="54"/>
          <line class="i" x1="-72.25" y1="39.6" x2=".25" y2="39.6"/>
          <line class="i" x1="-72.25" y1="25.2" x2=".25" y2="25.2"/>
          <line class="i" x1="-72.25" y1="10.8" x2=".25" y2="10.8"/>
          <line class="i" x1="-72.25" y1="61.2" x2=".25" y2="61.2"/>
          <line class="i" x1="-72.25" y1="46.8" x2=".25" y2="46.8"/>
          <line class="i" x1="-72.25" y1="32.4" x2=".25" y2="32.4"/>
          <line class="i" x1="-72.25" y1="18" x2=".25" y2="18"/>
          <line class="i" x1="-72.25" y1="3.6" x2=".25" y2="3.6"/>
        </g>
      </g>
    </pattern>
  </defs>
  <g>
    <line class="j" x1="644.38" y1="152.49" x2="644.38" y2="49.57"/>
    <path class="k" d="M644.38,52l-4.88,2.97-.11-.17,3.16-7.96c.61-2.77,1.22-5.54,1.83-8.32.61,2.77,1.22,5.54,1.83,8.32l3.16,7.96-.08.17-4.91-2.97Z"/>
  </g>
  <g>
    <line class="g" x1="124.57" y1="359.27" x2="124.57" y2="252.24"/>
    <polygon class="u" points="132.44 257.61 124.57 228.24 116.7 257.61 132.44 257.61"/>
  </g>
  <polygon class="aa" points="623.47 79.42 655.98 95.67 655.98 111.92 636.31 111.92 636.11 184.56 688.48 209.44 688.48 226.95 623.47 194.44 623.47 79.42"/>
  <polygon class="s" points="152.14 241.95 152.14 339.47 623.47 194.44 623.47 96.92 152.14 241.95"/>
  <polyline class="d" points="1013.1 261.25 883.08 261.25 883.08 98.72 948.09 98.72"/>
  <polygon class="t" points="623.47 194.44 152.14 339.47 217.15 371.97 688.48 226.95 623.47 194.44"/>
  <polygon class="s" points="623.47 95.67 152.14 240.7 184.64 256.95 655.98 111.92 623.47 95.67"/>
  <line class="e" x1="225.66" y1="376.23" x2="267.07" y2="396.93"/>
  <g>
    <line class="j" x1="644.38" y1="153.6" x2="732.59" y2="197.7"/>
    <path class="k" d="M643.01,156.33c-1.51-.75-2.12-2.59-1.37-4.1s2.59-2.12,4.1-1.37c1.51.75,2.12,2.59,1.37,4.1-.75,1.51-2.59,2.12-4.1,1.37Z"/>
    <path class="k" d="M730.41,196.61l-.47-5.69.2-.02,5.7,6.39c2.21,1.79,4.41,3.57,6.62,5.36-2.75-.69-5.5-1.39-8.26-2.08l-8.53-.73-.11-.15,4.85-3.06Z"/>
  </g>
  <g>
    <line class="e" x1="257.83" y1="382.34" x2="706.23" y2="244.37"/>
    <polygon class="x" points="261.55 385.32 246.36 385.87 259.24 377.79 261.55 385.32"/>
    <polygon class="x" points="704.82 248.93 717.7 240.85 702.51 241.4 704.82 248.93"/>
  </g>
  <g>
    <line class="c" x1="883.08" y1="66.22" x2="883.08" y2="33.71"/>
    <line class="c" x1="948.09" y1="66.22" x2="948.09" y2="33.71"/>
    <g>
      <line class="c" x1="895.08" y1="46.35" x2="936.09" y2="46.35"/>
      <polygon class="x" points="897.76 50.29 883.08 46.35 897.76 42.42 897.76 50.29"/>
      <polygon class="x" points="933.41 50.29 948.09 46.35 933.41 42.42 933.41 50.29"/>
    </g>
  </g>
  <g>
    <line class="c" x1="850.57" y1="98.72" x2="818.06" y2="98.72"/>
    <line class="c" x1="850.57" y1="261.25" x2="818.06" y2="261.25"/>
    <g>
      <line class="c" x1="830.71" y1="110.72" x2="830.71" y2="249.25"/>
      <polygon class="x" points="826.77 113.4 830.71 98.72 834.64 113.4 826.77 113.4"/>
      <polygon class="x" points="826.77 246.57 830.71 261.25 834.64 246.57 826.77 246.57"/>
    </g>
  </g>
  <g>
    <line class="c" x1="883.08" y1="293.76" x2="883.08" y2="326.26"/>
    <line class="c" x1="1013.1" y1="293.76" x2="1013.1" y2="326.26"/>
    <g>
      <line class="c" x1="895.08" y1="313.62" x2="1001.1" y2="313.62"/>
      <polygon class="x" points="897.76 317.56 883.08 313.62 897.76 309.69 897.76 317.56"/>
      <polygon class="x" points="998.42 317.56 1013.1 313.62 998.42 309.69 998.42 317.56"/>
    </g>
  </g>
  <text class="q" transform="translate(914.39 339.63)"><tspan x="0" y="0">80 mm</tspan></text>
  <text class="q" transform="translate(881.49 28.53)"><tspan x="0" y="0">40 mm</tspan></text>
  <text class="q" transform="translate(747.29 185.06)"><tspan x="0" y="0">100 mm</tspan></text>
  <text class="q" transform="translate(471.12 339.46)"><tspan x="0" y="0">2000 mm</tspan></text>
  <g>
    <line class="c" x1="932.04" y1="110.13" x2="932.04" y2="121.8"/>
    <polygon class="x" points="929.28 112.01 932.04 101.73 934.79 112.01 929.28 112.01"/>
  </g>
  <g>
    <line class="c" x1="894.29" y1="216.61" x2="906.15" y2="216.61"/>
    <polygon class="x" points="896.16 219.36 885.89 216.61 896.16 213.85 896.16 219.36"/>
  </g>
  <g>
    <line class="c" x1="871.67" y1="216.61" x2="860" y2="216.61"/>
    <polygon class="x" points="869.79 213.85 880.07 216.61 869.79 219.36 869.79 213.85"/>
  </g>
  <g>
    <line class="c" x1="965.65" y1="272.66" x2="965.65" y2="284.33"/>
    <polygon class="x" points="962.89 274.54 965.65 264.26 968.4 274.54 962.89 274.54"/>
  </g>
  <text class="q" transform="translate(957.41 85.78)"><tspan x="0" y="0">2.0 mm</tspan></text>
  <text class="q" transform="translate(908.49 222.93)"><tspan x="0" y="0">2.0 mm</tspan></text>
  <text class="q" transform="translate(987.63 243.19)"><tspan x="0" y="0">1.0 mm</tspan></text>
  <text class="r" transform="translate(92.26 217.57)"><tspan x="0" y="0">800 N</tspan></text>
  <text class="r" transform="translate(29.99 264.26)"><tspan x="0" y="0">400 N</tspan></text>
  <text class="l" transform="translate(855.25 371.97)"><tspan x="0" y="0">C</tspan><tspan class="y" x="14.11" y="0">R</tspan><tspan x="27.52" y="0">OS</tspan><tspan class="w" x="56.32" y="0">S</tspan><tspan x="69.84" y="0">-S</tspan><tspan class="z" x="90.8" y="0">E</tspan><tspan class="ab" x="102.91" y="0">C</tspan><tspan x="117.34" y="0">T</tspan><tspan class="v" x="129.93" y="0">I</tspan><tspan x="138.21" y="0">ON</tspan></text>
  <g>
    <line class="j" x1="644.38" y1="152.94" x2="105.7" y2="320.14"/>
    <path class="k" d="M108.02,319.42l4.28,3.78-.13.15-8.54-.66c-2.83.24-5.66.48-8.49.72,2.47-1.4,4.93-2.81,7.4-4.21l6.66-5.38.18.03-1.38,5.57Z"/>
  </g>
  <text class="o" transform="translate(746.56 211.75)"><tspan x="0" y="0">x</tspan></text>
  <text class="n" transform="translate(640.8 28.53)"><tspan x="0" y="0">y</tspan></text>
  <text class="o" transform="translate(77.78 330.11)"><tspan x="0" y="0">z</tspan></text>
  <line class="e" x1="691.65" y1="227.82" x2="733.06" y2="248.53"/>
  <g>
    <line class="g" x1="191.06" y1="330.12" x2="91.05" y2="280.11"/>
    <polygon class="u" points="99.37 275.47 69.59 269.38 92.33 289.55 99.37 275.47"/>
  </g>
  <text class="o" transform="translate(648.89 152.48)"><tspan x="0" y="0">C</tspan></text>
  <g>
    <line class="h" x1="919.6" y1="179.99" x2="956.92" y2="179.99"/>
    <path class="k" d="M919.6,182.36c-1.31,0-2.38-1.06-2.38-2.38s1.06-2.38,2.38-2.38,2.38,1.06,2.38,2.38-1.06,2.38-2.38,2.38Z"/>
    <path class="k" d="M955.3,179.99l-1.98-3.25.11-.07,5.3,2.11c1.85.41,3.7.81,5.54,1.22-1.85.41-3.7.81-5.54,1.22l-5.3,2.11-.11-.06,1.98-3.27Z"/>
  </g>
  <g>
    <polyline class="c" points="932.04 87.51 932.04 75.65 950 75.65"/>
    <polygon class="x" points="934.79 85.63 932.04 95.91 929.28 85.63 934.79 85.63"/>
  </g>
  <g>
    <line class="h" x1="919.09" y1="181.99" x2="919.09" y2="140.6"/>
    <path class="k" d="M919.09,142.22l-3.25,1.98-.07-.11,2.11-5.3c.41-1.85.81-3.7,1.22-5.54.41,1.85.81,3.7,1.22,5.54l2.11,5.3-.06.11-3.27-1.98Z"/>
  </g>
  <g>
    <polyline class="c" points="965.65 250.26 965.65 238.4 983.61 238.4"/>
    <polygon class="x" points="968.4 248.38 965.65 258.66 962.89 248.38 968.4 248.38"/>
  </g>
  <text class="m" transform="translate(968.71 185.06)"><tspan x="0" y="0">x</tspan></text>
  <text class="p" transform="translate(911.86 129.11)"><tspan x="0" y="0">y</tspan></text>
  <text class="m" transform="translate(903.18 190.59)"><tspan x="0" y="0">C</tspan></text>
</svg>