<?xml version="1.0" encoding="UTF-8" standalone="no"?>
<svg
   id="Layer_1"
   data-name="Layer 1"
   viewBox="0 0 132736.35 15555.079"
   version="1.1"
   width="132736.34"
   height="15555.079"
   xmlns:xlink="http://www.w3.org/1999/xlink"
   xmlns="http://www.w3.org/2000/svg"
   xmlns:svg="http://www.w3.org/2000/svg">
  <defs
     id="defs32">
    <pattern
       xlink:href="#_10_lpi_10_"
       id="pattern2"
       patternTransform="matrix(0.35864743,-0.45582016,0.43337977,0.38716787,-1737.1687,-8323.7972)" />
    <style
       id="style1">
      .cls-1, .cls-2, .cls-3, .cls-4, .cls-5, .cls-6, .cls-7, .cls-8, .cls-9, .cls-10, .cls-11 {
        stroke-linejoin: round;
      }

      .cls-1, .cls-12, .cls-13, .cls-6, .cls-14, .cls-7, .cls-15, .cls-16, .cls-17 {
        stroke-width: .5px;
      }

      .cls-1, .cls-12, .cls-13, .cls-17 {
        stroke: #009444;
      }

      .cls-1, .cls-18, .cls-19, .cls-4, .cls-6, .cls-14, .cls-7, .cls-8, .cls-15, .cls-20, .cls-16, .cls-17 {
        fill: none;
      }

      .cls-21, .cls-22, .cls-23, .cls-24, .cls-25 {
        fill: #231f20;
      }

      .cls-2, .cls-18, .cls-3, .cls-4, .cls-5, .cls-6, .cls-14, .cls-8, .cls-9, .cls-15, .cls-20, .cls-10, .cls-11 {
        stroke: #231f20;
      }

      .cls-2, .cls-5 {
        fill: #bcbec0;
      }

      .cls-12, .cls-26 {
        fill: #fff;
      }

      .cls-12, .cls-18, .cls-13, .cls-14, .cls-15, .cls-16, .cls-17 {
        stroke-miterlimit: 10;
      }

      .cls-18 {
        stroke-width: 2.12px;
      }

      .cls-3 {
        fill: url(#linear-gradient-2);
      }

      .cls-13, .cls-27, .cls-28, .cls-29, .cls-30 {
        fill: #009444;
      }

      .cls-31 {
        letter-spacing: 0em;
      }

      .cls-5, .cls-10, .cls-11 {
        stroke-width: .75px;
      }

      .cls-32 {
        letter-spacing: -.01em;
      }

      .cls-33 {
        letter-spacing: 0em;
      }

      .cls-14 {
        stroke-dasharray: 1.93 1.93;
      }

      .cls-34 {
        letter-spacing: .02em;
      }

      .cls-22, .cls-35, .cls-29, .cls-30 {
        font-family: AtkinsonHyperlegibleNext-Regular, 'Atkinson Hyperlegible Next';
      }

      .cls-36 {
        letter-spacing: 0em;
      }

      .cls-7, .cls-16 {
        stroke: #3a75bb;
      }

      .cls-37 {
        letter-spacing: 0em;
      }

      .cls-35 {
        font-size: 9px;
      }

      .cls-35, .cls-38 {
        fill: #3a75bb;
      }

      .cls-39 {
        letter-spacing: .02em;
      }

      .cls-40 {
        letter-spacing: 0em;
      }

      .cls-23 {
        letter-spacing: -.01em;
      }

      .cls-23, .cls-24 {
        font-family: AtkinsonHyperlegibleNext-Medium, 'Atkinson Hyperlegible Next';
        font-weight: 500;
      }

      .cls-23, .cls-24, .cls-41, .cls-28, .cls-29, .cls-30 {
        font-size: 12px;
      }

      .cls-8 {
        stroke-width: .25px;
      }

      .cls-25 {
        font-family: Georgia, Georgia;
        font-size: 7px;
      }

      .cls-42 {
        letter-spacing: -.02em;
      }

      .cls-9 {
        fill: url(#linear-gradient);
      }

      .cls-43 {
        letter-spacing: -.02em;
      }

      .cls-44 {
        letter-spacing: 0em;
      }

      .cls-45 {
        letter-spacing: 0em;
      }

      .cls-46 {
        letter-spacing: -.03em;
      }

      .cls-28 {
        font-family: MyriadPro-Regular, 'Myriad Pro';
      }

      .cls-29, .cls-47 {
        letter-spacing: -.02em;
      }

      .cls-48 {
        font-size: 10px;
      }

      .cls-49 {
        letter-spacing: 0em;
      }

      .cls-20 {
        stroke-width: .72px;
      }

      .cls-50 {
        letter-spacing: -.04em;
      }

      .cls-10 {
        fill: url(#_10_lpi_10_);
      }

      .cls-51 {
        letter-spacing: -.02em;
      }

      .cls-11 {
        fill: #808285;
      }

      .cls-52 {
        letter-spacing: 0em;
      }
    </style>
    <pattern
       id="_10_lpi_10_"
       data-name="10 lpi 10%"
       x="0"
       y="0"
       width="72"
       height="72"
       patternTransform="translate(-1737.1687 -8323.7972) rotate(-51.8037) scale(.58) skewX(-3.5803)"
       patternUnits="userSpaceOnUse"
       viewBox="0 0 72 72">
      <g
         id="g31">
        <rect
           class="cls-19"
           width="72"
           height="72"
           id="rect1" />
        <g
           id="g10">
          <line
             class="cls-20"
             x1="71.75"
             y1="68.4"
             x2="144.25"
             y2="68.4"
             id="line1" />
          <line
             class="cls-20"
             x1="71.75"
             y1="54"
             x2="144.25"
             y2="54"
             id="line2" />
          <line
             class="cls-20"
             x1="71.75"
             y1="39.6"
             x2="144.25"
             y2="39.6"
             id="line3" />
          <line
             class="cls-20"
             x1="71.75"
             y1="25.2"
             x2="144.25"
             y2="25.2"
             id="line4" />
          <line
             class="cls-20"
             x1="71.75"
             y1="10.8"
             x2="144.25"
             y2="10.8"
             id="line5" />
          <line
             class="cls-20"
             x1="71.75"
             y1="61.2"
             x2="144.25"
             y2="61.2"
             id="line6" />
          <line
             class="cls-20"
             x1="71.75"
             y1="46.8"
             x2="144.25"
             y2="46.8"
             id="line7" />
          <line
             class="cls-20"
             x1="71.75"
             y1="32.4"
             x2="144.25"
             y2="32.4"
             id="line8" />
          <line
             class="cls-20"
             x1="71.75"
             y1="18"
             x2="144.25"
             y2="18"
             id="line9" />
          <line
             class="cls-20"
             x1="71.75"
             y1="3.6"
             x2="144.25"
             y2="3.6"
             id="line10" />
        </g>
        <g
           id="g20">
          <line
             class="cls-20"
             x1="-.25"
             y1="68.4"
             x2="72.25"
             y2="68.4"
             id="line11" />
          <line
             class="cls-20"
             x1="-.25"
             y1="54"
             x2="72.25"
             y2="54"
             id="line12" />
          <line
             class="cls-20"
             x1="-.25"
             y1="39.6"
             x2="72.25"
             y2="39.6"
             id="line13" />
          <line
             class="cls-20"
             x1="-.25"
             y1="25.2"
             x2="72.25"
             y2="25.2"
             id="line14" />
          <line
             class="cls-20"
             x1="-.25"
             y1="10.8"
             x2="72.25"
             y2="10.8"
             id="line15" />
          <line
             class="cls-20"
             x1="-.25"
             y1="61.2"
             x2="72.25"
             y2="61.2"
             id="line16" />
          <line
             class="cls-20"
             x1="-.25"
             y1="46.8"
             x2="72.25"
             y2="46.8"
             id="line17" />
          <line
             class="cls-20"
             x1="-.25"
             y1="32.4"
             x2="72.25"
             y2="32.4"
             id="line18" />
          <line
             class="cls-20"
             x1="-.25"
             y1="18"
             x2="72.25"
             y2="18"
             id="line19" />
          <line
             class="cls-20"
             x1="-.25"
             y1="3.6"
             x2="72.25"
             y2="3.6"
             id="line20" />
        </g>
        <g
           id="g30">
          <line
             class="cls-20"
             x1="-72.25"
             y1="68.4"
             x2=".25"
             y2="68.4"
             id="line21" />
          <line
             class="cls-20"
             x1="-72.25"
             y1="54"
             x2=".25"
             y2="54"
             id="line22" />
          <line
             class="cls-20"
             x1="-72.25"
             y1="39.6"
             x2=".25"
             y2="39.6"
             id="line23" />
          <line
             class="cls-20"
             x1="-72.25"
             y1="25.2"
             x2=".25"
             y2="25.2"
             id="line24" />
          <line
             class="cls-20"
             x1="-72.25"
             y1="10.8"
             x2=".25"
             y2="10.8"
             id="line25" />
          <line
             class="cls-20"
             x1="-72.25"
             y1="61.2"
             x2=".25"
             y2="61.2"
             id="line26" />
          <line
             class="cls-20"
             x1="-72.25"
             y1="46.8"
             x2=".25"
             y2="46.8"
             id="line27" />
          <line
             class="cls-20"
             x1="-72.25"
             y1="32.4"
             x2=".25"
             y2="32.4"
             id="line28" />
          <line
             class="cls-20"
             x1="-72.25"
             y1="18"
             x2=".25"
             y2="18"
             id="line29" />
          <line
             class="cls-20"
             x1="-72.25"
             y1="3.6"
             x2=".25"
             y2="3.6"
             id="line30" />
        </g>
      </g>
    </pattern>
    <linearGradient
       id="linear-gradient"
       x1="167.67999"
       y1="78.190002"
       x2="167.67"
       y2="78.220001"
       gradientUnits="userSpaceOnUse">
      <stop
         offset=".49"
         stop-color="#bcbec0"
         id="stop31" />
      <stop
         offset=".96"
         stop-color="#58595b"
         id="stop32" />
    </linearGradient>
    <linearGradient
       id="linear-gradient-2"
       x1="108.42"
       y1="35.900002"
       x2="101.19"
       y2="56.889999"
       xlink:href="#linear-gradient" />
    <linearGradient
       xlink:href="#linear-gradient"
       id="linearGradient2"
       gradientUnits="userSpaceOnUse"
       x1="167.67999"
       y1="78.190002"
       x2="167.67"
       y2="78.220001" />
  </defs>
  <path
     class="cls-10"
     d="m 73.28,5.33 c -7,-5.68 -17.81,-5.06 -22.6,-4.79 -3.93,0.23 -21.2,1.21 -25.42,9.59 -1.86,3.7 0.16,6.2 -2.82,11.98 -1.98,3.84 -4.08,5.07 -5.65,7.19 -6.85,9.22 0.76,29.11 11.3,31.15 6.76,1.31 9.14,-5.81 25.42,-9.59 6.06,-1.41 5.96,-0.47 16.94,-2.4 13.02,-2.28 19.59,-3.5 22.59,-7.19 3.86,-4.74 3.14,-12.05 0,-16.77 C 89.79,19.61 85.57,19.94 78.92,12.52 75.04,8.19 75.99,7.54 73.27,5.33 Z"
     id="path32"
     style="fill:url(#pattern2)" />
  <g
     id="g55">
    <polygon
       class="cls-11"
       points="165.52,67.74 184.26,73.99 184.26,60.61 148.17,48.58 "
       id="polygon32" />
    <polyline
       class="cls-5"
       points="167.79 78.23 184.26 73.99 165.52 67.74 159.62 69.47 152.43 73.16"
       id="polyline32" />
    <line
       class="cls-1"
       x1="62.009998"
       y1="16.610001"
       x2="89.059998"
       y2="8.9200001"
       id="line32" />
    <g
       id="g33">
      <line
         class="cls-15"
         x1="51.540001"
         y1="26.57"
         x2="51.540001"
         y2="59.02"
         id="line33" />
      <polygon
         class="cls-21"
         points="52.71,58.23 50.38,58.23 51.54,62.57 "
         id="polygon33" />
    </g>
    <text
       class="cls-25"
       transform="translate(212.38,81.02)"
       id="text33"><tspan
         x="0"
         y="0"
         id="tspan33">z</tspan></text>
    <text
       class="cls-25"
       transform="translate(50.3,67.31)"
       id="text34"><tspan
         x="0"
         y="0"
         id="tspan34">y</tspan></text>
    <g
       id="g36">
      <line
         class="cls-26"
         x1="29.4"
         y1="32.869999"
         x2="4.1999998"
         y2="37.77"
         id="line34" />
      <g
         id="g35">
        <line
           class="cls-15"
           x1="29.4"
           y1="32.869999"
           x2="7.6700001"
           y2="37.09"
           id="line35" />
        <polygon
           class="cls-21"
           points="8.67,38.08 8.23,35.8 4.2,37.77 "
           id="polygon35" />
      </g>
    </g>
    <text
       class="cls-25"
       transform="translate(0,39.07)"
       id="text36"><tspan
         x="0"
         y="0"
         id="tspan36">x</tspan></text>
    <text
       class="cls-35"
       transform="translate(69.77,81.02)"
       id="text40"><tspan
         class="cls-51"
         x="0"
         y="0"
         id="tspan37">T</tspan><tspan
         x="4.8400002"
         y="0"
         xml:space="preserve"
         id="tspan38"> = 5 kNm</tspan><tspan
         class="cls-46"
         x="41.619999"
         y="0"
         id="tspan39">/</tspan><tspan
         class="cls-31"
         x="44.830002"
         y="0"
         id="tspan40">m</tspan></text>
    <text
       class="cls-30"
       transform="rotate(20,1.2385619,424.55191)"
       id="text41"><tspan
         x="0"
         y="0"
         id="tspan41">L</tspan></text>
    <line
       class="cls-1"
       x1="187.88"
       y1="59.299999"
       x2="216.14999"
       y2="51.27"
       id="line41" />
    <g
       id="g43">
      <line
         class="cls-1"
         x1="88.760002"
         y1="10.61"
         x2="209.36"
         y2="51.09"
         id="line42" />
      <polygon
         class="cls-27"
         points="89.6,9.98 89.05,11.63 86.24,9.77 "
         id="polygon42" />
      <polygon
         class="cls-27"
         points="209.07,50.08 208.52,51.73 211.88,51.94 "
         id="polygon43" />
    </g>
    <path
       class="cls-7"
       d="m 106.5,63.32 c -3.43,0.17 -4.49,0.94 -4.75,1.69 -0.33,0.93 0.62,1.68 0.5,3 -0.14,1.55 -1.62,2.71 -3,3.5"
       id="path43" />
    <g
       id="g45">
      <path
         class="cls-9"
         d="m 167.56,78.18 0.23,0.08 v -0.02 c -0.07,-0.01 -0.15,-0.03 -0.23,-0.05 z"
         id="path44"
         style="fill:url(#linearGradient2)" />
      <path
         class="cls-3"
         d="m 166.59,77.86 c -1.74,-0.78 -2.87,-2.52 -2.87,-4.82 0,-3.81 3.08,-7.72 6.89,-8.74 l 2.95,-0.79 0.37,-0.95 -113.88,-37.79 -3.35,-6.68 -13.77,3.69 -0.44,-0.15 -0.05,0.3 c -3.58,1.21 -6.4,4.94 -6.4,8.58 0,2.75 1.62,4.68 3.95,5.16 l -0.02,0.12 126.63,42.05 z"
         id="path45"
         style="fill:url(#linear-gradient-2)" />
    </g>
    <polyline
       class="cls-2"
       points="169.89 64.3 184.26 60.61 56.7 18.09 42.52 21.63"
       id="polyline45" />
    <g
       id="g46">
      <path
         class="cls-16"
         d="m 131.18,69.84 c -14.52,0 -9.72,-20.47 -0.15,-22.33"
         id="path46" />
      <polygon
         class="cls-38"
         points="130.14,46.15 129.92,49.05 135.44,48 "
         id="polygon46" />
    </g>
    <g
       id="g47">
      <path
         class="cls-16"
         d="m 113.26,63.89 c -14.52,0 -9.72,-20.47 -0.15,-22.33"
         id="path47" />
      <polygon
         class="cls-38"
         points="112.22,40.2 112.01,43.1 117.52,42.04 "
         id="polygon47" />
    </g>
    <g
       id="g48">
      <path
         class="cls-16"
         d="m 59.51,46.46 c -14.52,0 -9.72,-20.47 -0.15,-22.33"
         id="path48" />
      <polygon
         class="cls-38"
         points="58.47,22.77 58.25,25.67 63.77,24.62 "
         id="polygon48" />
    </g>
    <g
       id="g49">
      <path
         class="cls-16"
         d="m 41.59,40.15 c -14.52,0 -9.72,-20.47 -0.15,-22.33"
         id="path49" />
      <polygon
         class="cls-38"
         points="40.55,16.46 40.34,19.35 45.85,18.3 "
         id="polygon49" />
    </g>
    <g
       id="g50">
      <path
         class="cls-16"
         d="m 149.1,76.04 c -14.52,0 -9.72,-20.47 -0.15,-22.33"
         id="path50" />
      <polygon
         class="cls-38"
         points="148.05,52.35 147.84,55.25 153.35,54.2 "
         id="polygon50" />
    </g>
    <g
       id="g51">
      <path
         class="cls-16"
         d="m 167.01,82.02 c -14.52,0 -9.72,-20.47 -0.15,-22.33"
         id="path51" />
      <polygon
         class="cls-38"
         points="165.97,58.33 165.76,61.23 171.27,60.18 "
         id="polygon51" />
    </g>
    <g
       id="g52">
      <path
         class="cls-16"
         d="m 77.43,52.46 c -14.52,0 -9.72,-20.47 -0.15,-22.33"
         id="path52" />
      <polygon
         class="cls-38"
         points="76.38,28.77 76.17,31.67 81.68,30.62 "
         id="polygon52" />
    </g>
    <g
       id="g53">
      <path
         class="cls-16"
         d="m 95.34,58.12 c -14.52,0 -9.72,-20.47 -0.15,-22.33"
         id="path53" />
      <polygon
         class="cls-38"
         points="94.3,34.43 94.09,37.32 99.6,36.27 "
         id="polygon53" />
    </g>
    <g
       id="g54">
      <line
         class="cls-6"
         x1="174.41"
         y1="69.019997"
         x2="206.86"
         y2="79.269997"
         id="line53" />
      <polygon
         class="cls-21"
         points="206.46,77.92 205.76,80.14 210.24,80.33 "
         id="polygon54" />
    </g>
    <line
       class="cls-8"
       x1="42.52"
       y1="21.629999"
       x2="170.48"
       y2="64.300003"
       id="line54" />
    <path
       class="cls-4"
       d="m 170.48,64.3 c -3.81,1.02 -6.89,4.93 -6.89,8.74 0,3.81 3.08,6.06 6.89,5.04 l 13.78,-3.69 V 60.61 Z"
       id="path54" />
  </g>
  <path
     class="cls-18"
     d="m 288.19,35.81 c -11.42,0 -20.67,9.25 -20.67,20.67 0,11.42 9.25,20.67 20.67,20.67 h 41.34 V 35.81 Z"
     id="path55" />
  <line
     class="cls-12"
     x1="333.07001"
     y1="35.810001"
     x2="350.79001"
     y2="35.810001"
     id="line55" />
  <line
     class="cls-17"
     x1="333.07001"
     y1="78.330002"
     x2="350.79001"
     y2="78.330002"
     id="line56" />
  <g
     id="g58">
    <line
       class="cls-17"
       x1="347.25"
       y1="40.240002"
       x2="347.25"
       y2="73.900002"
       id="line57" />
    <polygon
       class="cls-27"
       points="348.7,41.23 345.79,41.23 347.25,35.81 "
       id="polygon57" />
    <polygon
       class="cls-27"
       points="348.7,72.91 345.79,72.91 347.25,78.33 "
       id="polygon58" />
  </g>
  <text
     class="cls-30"
     id="text59"
     x="350.79001"
     y="60.610001"><tspan
       x="350.79001"
       y="60.610001"
       id="tspan58">2</tspan><tspan
       class="cls-47"
       x="357.37"
       y="60.610001"
       id="tspan59">r</tspan></text>
  <line
     class="cls-13"
     x1="287.01001"
     y1="32.259998"
     x2="287.01001"
     y2="14.55"
     id="line59" />
  <line
     class="cls-13"
     x1="329.53"
     y1="32.259998"
     x2="329.53"
     y2="14.55"
     id="line60" />
  <g
     id="g62">
    <line
       class="cls-17"
       x1="291.44"
       y1="18.09"
       x2="325.10001"
       y2="18.09"
       id="line61" />
    <polygon
       class="cls-27"
       points="292.43,16.64 292.43,19.54 287.01,18.09 "
       id="polygon61" />
    <polygon
       class="cls-27"
       points="324.11,16.64 324.11,19.54 329.53,18.09 "
       id="polygon62" />
  </g>
  <text
     class="cls-28"
     id="text62"
     x="304.73001"
     y="14.55"><tspan
       x="304.73001"
       y="14.55"
       id="tspan62">2r</tspan></text>
  <g
     id="g64">
    <line
       class="cls-15"
       x1="287.01001"
       y1="35.810001"
       x2="287.01001"
       y2="36.810001"
       id="line62" />
    <line
       class="cls-14"
       x1="287.01001"
       y1="38.740002"
       x2="287.01001"
       y2="76.360001"
       id="line63" />
    <line
       class="cls-15"
       x1="287.01001"
       y1="77.330002"
       x2="287.01001"
       y2="78.330002"
       id="line64" />
  </g>
  <g
     id="g65">
    <line
       class="cls-17"
       x1="272.67999"
       y1="62.799999"
       x2="287.01001"
       y2="57.07"
       id="line65" />
    <polygon
       class="cls-27"
       points="272.98,61.43 273.84,63.59 269.39,64.12 "
       id="polygon65" />
    <path
       class="cls-27"
       d="m 287.43,58.12 c 0.58,-0.23 0.86,-0.89 0.63,-1.47 -0.23,-0.58 -0.89,-0.86 -1.47,-0.63 -0.58,0.23 -0.86,0.89 -0.63,1.47 0.23,0.58 0.89,0.86 1.47,0.63 z"
       id="path65" />
  </g>
  <text
     class="cls-29"
     id="text65"
     x="279.92001"
     y="67.699997"><tspan
       x="279.92001"
       y="67.699997"
       id="tspan65">r</tspan></text>
  <g
     id="g66">
    <line
       class="cls-17"
       x1="315.35999"
       y1="25.18"
       x2="315.35999"
       y2="31.379999"
       id="line66" />
    <polygon
       class="cls-27"
       points="316.81,30.39 313.91,30.39 315.36,35.81 "
       id="polygon66" />
  </g>
  <g
     id="g67">
    <line
       class="cls-17"
       x1="315.35999"
       y1="40.240002"
       x2="315.35999"
       y2="46.439999"
       id="line67" />
    <polygon
       class="cls-27"
       points="316.81,41.23 313.91,41.23 315.36,35.81 "
       id="polygon67" />
  </g>
  <text
     class="cls-30"
     id="text67"
     x="315.35999"
     y="57.07"><tspan
       x="315.35999"
       y="57.07"
       id="tspan67">t</tspan></text>
  <g
     id="g68">
    <line
       class="cls-15"
       x1="297.64001"
       y1="57.07"
       x2="297.64001"
       y2="84.529999"
       id="line68" />
    <polygon
       class="cls-21"
       points="299.09,83.54 296.19,83.54 297.64,88.96 "
       id="polygon68" />
  </g>
  <g
     id="g69">
    <line
       class="cls-15"
       x1="297.64001"
       y1="57.07"
       x2="256.01001"
       y2="57.07"
       id="line69" />
    <polygon
       class="cls-21"
       points="257,58.52 257,55.62 251.58,57.07 "
       id="polygon69" />
  </g>
  <text
     class="cls-25"
     id="text69"
     x="244.49001"
     y="57.07"><tspan
       x="244.49001"
       y="57.07"
       id="tspan69">x</tspan></text>
  <text
     class="cls-25"
     id="text70"
     x="294.10001"
     y="96.040001"><tspan
       x="294.10001"
       y="96.040001"
       id="tspan70">y</tspan></text>
  <text
     class="cls-22"
     id="text93"
     x="245.12"
     y="110.22"><tspan
       class="cls-41"
       id="tspan83"><tspan
         x="245.12"
         y="110.22"
         id="tspan71">Wing</tspan><tspan
         class="cls-37"
         x="271.70999"
         y="110.22"
         id="tspan72">b</tspan><tspan
         class="cls-42"
         x="278.54001"
         y="110.22"
         id="tspan73">o</tspan><tspan
         x="284.88"
         y="110.22"
         id="tspan74">x c</tspan><tspan
         class="cls-32"
         x="299.82999"
         y="110.22"
         id="tspan75">r</tspan><tspan
         class="cls-49"
         x="303.86002"
         y="110.22"
         id="tspan76">o</tspan><tspan
         class="cls-36"
         x="310.35001"
         y="110.22"
         id="tspan77">ss-</tspan><tspan
         class="cls-44"
         x="326"
         y="110.22"
         id="tspan78">s</tspan><tspan
         x="331.63"
         y="110.22"
         id="tspan79">e</tspan><tspan
         class="cls-39"
         x="338.07999"
         y="110.22"
         id="tspan80">c</tspan><tspan
         class="cls-33"
         x="344.13998"
         y="110.22"
         id="tspan81">t</tspan><tspan
         class="cls-36"
         x="348.13"
         y="110.22"
         id="tspan82">ion</tspan></tspan><tspan
       class="cls-48"
       id="tspan93"><tspan
         class="cls-50"
         x="261"
         y="122.22"
         id="tspan84">(</tspan><tspan
         class="cls-45"
         x="263.59"
         y="122.22"
         id="tspan85">c</tspan><tspan
         class="cls-40"
         x="268.34"
         y="122.22"
         id="tspan86">on</tspan><tspan
         class="cls-52"
         x="279.32001"
         y="122.22"
         id="tspan87">s</tspan><tspan
         x="284.01001"
         y="122.22"
         id="tspan88">ta</tspan><tspan
         class="cls-43"
         x="292.51999"
         y="122.22"
         id="tspan89">n</tspan><tspan
         x="297.85001"
         y="122.22"
         id="tspan90">t thi</tspan><tspan
         class="cls-34"
         x="315.19"
         y="122.22"
         id="tspan91">c</tspan><tspan
         x="320.23999"
         y="122.22"
         id="tspan92">kness)</tspan></tspan></text>
  <text
     class="cls-23"
     id="text94"
     x="49.610001"
     y="14.55"><tspan
       x="49.610001"
       y="14.55"
       id="tspan94">A</tspan></text>
  <text
     class="cls-24"
     id="text95"
     x="163"
     y="92.5"><tspan
       x="163"
       y="92.5"
       id="tspan95">B</tspan></text>
</svg>
