<?xml version="1.0" encoding="UTF-8" standalone="no"?>
<svg
   id="Layer_1"
   data-name="Layer 1"
   viewBox="0 0 182047.29 51783.555"
   version="1.1"
   width="182047.3"
   height="51783.555"
   xmlns="http://www.w3.org/2000/svg"
   xmlns:svg="http://www.w3.org/2000/svg">
  <defs
     id="defs31">
    <style
       id="style1">
      .cls-1, .cls-2, .cls-3, .cls-4, .cls-5, .cls-6, .cls-7, .cls-8 {
        fill: none;
      }

      .cls-1, .cls-6 {
        stroke-miterlimit: 10;
      }

      .cls-1, .cls-7 {
        stroke: #009444;
        stroke-width: .75px;
      }

      .cls-9 {
        fill: url(#_10_lpi_10_);
      }

      .cls-10 {
        fill: #bcbec0;
      }

      .cls-10, .cls-2, .cls-4, .cls-5, .cls-11, .cls-7 {
        stroke-linejoin: round;
      }

      .cls-10, .cls-2, .cls-4, .cls-5, .cls-11, .cls-8 {
        stroke: #231f20;
      }

      .cls-10, .cls-11 {
        stroke-width: 1.5px;
      }

      .cls-2 {
        stroke-dasharray: 4.98 4.98 14.94 4.98;
      }

      .cls-12, .cls-13 {
        fill: #3a54a4;
      }

      .cls-5 {
        stroke-dasharray: 14.94 4.98;
      }

      .cls-11 {
        fill: #e6e7e8;
      }

      .cls-13 {
        font-family: AtkinsonHyperlegibleNext-Medium, 'Atkinson Hyperlegible Next';
        font-weight: 500;
      }

      .cls-13, .cls-14 {
        font-size: 12px;
      }

      .cls-15, .cls-14 {
        fill: #009444;
      }

      .cls-6 {
        stroke: #3a54a4;
        stroke-width: 2px;
      }

      .cls-8 {
        stroke-width: .72px;
      }

      .cls-14 {
        font-family: AtkinsonHyperlegibleNext-Regular, 'Atkinson Hyperlegible Next';
      }
    </style>
    <pattern
       id="_10_lpi_10_"
       data-name="10 lpi 10%"
       x="0"
       y="0"
       width="72"
       height="72"
       patternTransform="translate(3171.9611 -8039.272) rotate(-45) scale(1.014)"
       patternUnits="userSpaceOnUse"
       viewBox="0 0 72 72">
      <g
         id="g31">
        <rect
           class="cls-3"
           width="72"
           height="72"
           id="rect1" />
        <g
           id="g10">
          <line
             class="cls-8"
             x1="71.75"
             y1="68.4"
             x2="144.25"
             y2="68.4"
             id="line1" />
          <line
             class="cls-8"
             x1="71.75"
             y1="54"
             x2="144.25"
             y2="54"
             id="line2" />
          <line
             class="cls-8"
             x1="71.75"
             y1="39.6"
             x2="144.25"
             y2="39.6"
             id="line3" />
          <line
             class="cls-8"
             x1="71.75"
             y1="25.2"
             x2="144.25"
             y2="25.2"
             id="line4" />
          <line
             class="cls-8"
             x1="71.75"
             y1="10.8"
             x2="144.25"
             y2="10.8"
             id="line5" />
          <line
             class="cls-8"
             x1="71.75"
             y1="61.2"
             x2="144.25"
             y2="61.2"
             id="line6" />
          <line
             class="cls-8"
             x1="71.75"
             y1="46.8"
             x2="144.25"
             y2="46.8"
             id="line7" />
          <line
             class="cls-8"
             x1="71.75"
             y1="32.4"
             x2="144.25"
             y2="32.4"
             id="line8" />
          <line
             class="cls-8"
             x1="71.75"
             y1="18"
             x2="144.25"
             y2="18"
             id="line9" />
          <line
             class="cls-8"
             x1="71.75"
             y1="3.6"
             x2="144.25"
             y2="3.6"
             id="line10" />
        </g>
        <g
           id="g20">
          <line
             class="cls-8"
             x1="-.25"
             y1="68.4"
             x2="72.25"
             y2="68.4"
             id="line11" />
          <line
             class="cls-8"
             x1="-.25"
             y1="54"
             x2="72.25"
             y2="54"
             id="line12" />
          <line
             class="cls-8"
             x1="-.25"
             y1="39.6"
             x2="72.25"
             y2="39.6"
             id="line13" />
          <line
             class="cls-8"
             x1="-.25"
             y1="25.2"
             x2="72.25"
             y2="25.2"
             id="line14" />
          <line
             class="cls-8"
             x1="-.25"
             y1="10.8"
             x2="72.25"
             y2="10.8"
             id="line15" />
          <line
             class="cls-8"
             x1="-.25"
             y1="61.2"
             x2="72.25"
             y2="61.2"
             id="line16" />
          <line
             class="cls-8"
             x1="-.25"
             y1="46.8"
             x2="72.25"
             y2="46.8"
             id="line17" />
          <line
             class="cls-8"
             x1="-.25"
             y1="32.4"
             x2="72.25"
             y2="32.4"
             id="line18" />
          <line
             class="cls-8"
             x1="-.25"
             y1="18"
             x2="72.25"
             y2="18"
             id="line19" />
          <line
             class="cls-8"
             x1="-.25"
             y1="3.6"
             x2="72.25"
             y2="3.6"
             id="line20" />
        </g>
        <g
           id="g30">
          <line
             class="cls-8"
             x1="-72.25"
             y1="68.4"
             x2=".25"
             y2="68.4"
             id="line21" />
          <line
             class="cls-8"
             x1="-72.25"
             y1="54"
             x2=".25"
             y2="54"
             id="line22" />
          <line
             class="cls-8"
             x1="-72.25"
             y1="39.6"
             x2=".25"
             y2="39.6"
             id="line23" />
          <line
             class="cls-8"
             x1="-72.25"
             y1="25.2"
             x2=".25"
             y2="25.2"
             id="line24" />
          <line
             class="cls-8"
             x1="-72.25"
             y1="10.8"
             x2=".25"
             y2="10.8"
             id="line25" />
          <line
             class="cls-8"
             x1="-72.25"
             y1="61.2"
             x2=".25"
             y2="61.2"
             id="line26" />
          <line
             class="cls-8"
             x1="-72.25"
             y1="46.8"
             x2=".25"
             y2="46.8"
             id="line27" />
          <line
             class="cls-8"
             x1="-72.25"
             y1="32.4"
             x2=".25"
             y2="32.4"
             id="line28" />
          <line
             class="cls-8"
             x1="-72.25"
             y1="18"
             x2=".25"
             y2="18"
             id="line29" />
          <line
             class="cls-8"
             x1="-72.25"
             y1="3.6"
             x2=".25"
             y2="3.6"
             id="line30" />
        </g>
      </g>
    </pattern>
  </defs>
  <line
     class="cls-7"
     x1="77.779999"
     y1="139.28"
     x2="95.779999"
     y2="148.28"
     id="line31" />
  <polygon
     class="cls-9"
     points="363.33,129.26 296.44,97.67 296.44,2.92 363.33,37.66 "
     id="polygon31" />
  <polygon
     class="cls-10"
     points="338.78,71.78 320.78,62.78 104.78,152.78 122.78,161.78 "
     id="polygon32" />
  <polygon
     class="cls-10"
     points="320.78,98.78 104.78,152.78 104.78,116.78 320.78,26.78 "
     id="polygon33" />
  <polygon
     class="cls-11"
     points="338.78,107.78 122.78,161.78 122.78,125.78 338.78,35.78 "
     id="polygon34" />
  <polygon
     class="cls-11"
     points="338.78,35.78 320.78,26.78 104.78,116.78 122.78,125.78 "
     id="polygon35" />
  <g
     id="g38">
    <line
       class="cls-4"
       x1="28.690001"
       y1="167.64"
       x2="31.07"
       y2="166.85001"
       id="line35" />
    <line
       class="cls-5"
       x1="35.790001"
       y1="165.27"
       x2="52.330002"
       y2="159.75999"
       id="line36" />
    <line
       class="cls-2"
       x1="54.700001"
       y1="158.97"
       x2="109.04"
       y2="140.86"
       id="line37" />
    <line
       class="cls-4"
       x1="111.41"
       y1="140.07001"
       x2="113.78"
       y2="139.28"
       id="line38" />
  </g>
  <line
     class="cls-7"
     x1="104.78"
     y1="161.78"
     x2="104.78"
     y2="194.53999"
     id="line39" />
  <line
     class="cls-7"
     x1="122.78"
     y1="170.78"
     x2="122.78"
     y2="203.53999"
     id="line40" />
  <line
     class="cls-7"
     x1="77.779999"
     y1="103.28"
     x2="95.779999"
     y2="112.28"
     id="line41" />
  <g
     id="g43">
    <line
       class="cls-7"
       x1="81.980003"
       y1="134.73"
       x2="81.980003"
       y2="112.36"
       id="line42" />
    <polygon
       class="cls-15"
       points="84.16,133.25 81.98,141.38 79.8,133.25 "
       id="polygon42" />
    <polygon
       class="cls-15"
       points="84.16,113.84 81.98,105.71 79.8,113.84 "
       id="polygon43" />
  </g>
  <g
     id="g44">
    <line
       class="cls-7"
       x1="90.839996"
       y1="181.81"
       x2="98.830002"
       y2="185.81"
       id="line43" />
    <polygon
       class="cls-15"
       points="96.53,187.09 104.78,188.78 98.48,183.19 "
       id="polygon44" />
  </g>
  <g
     id="g45">
    <line
       class="cls-1"
       x1="127.67"
       y1="133.91"
       x2="133.72"
       y2="136.47"
       id="line44" />
    <polygon
       class="cls-15"
       points="128.04,135.72 123.39,132.09 129.23,132.91 "
       id="polygon45" />
  </g>
  <g
     id="g46">
    <line
       class="cls-1"
       x1="117.54"
       y1="129.61"
       x2="111.59"
       y2="127.09"
       id="line45" />
    <polygon
       class="cls-15"
       points="117.17,127.8 121.82,131.43 115.98,130.61 "
       id="polygon46" />
  </g>
  <text
     class="cls-14"
     id="text46"
     x="135.11"
     y="143.78"><tspan
       x="135.11"
       y="143.78"
       id="tspan46">1.0 mm</tspan></text>
  <line
     class="cls-7"
     x1="339.73999"
     y1="113.78"
     x2="339.73999"
     y2="136.47"
     id="line46" />
  <g
     id="g48">
    <line
       class="cls-7"
       x1="129.74001"
       y1="192.25"
       x2="333.39001"
       y2="129.59"
       id="line47" />
    <polygon
       class="cls-15"
       points="131.8,193.89 123.39,194.2 130.52,189.73 "
       id="polygon47" />
    <polygon
       class="cls-15"
       points="332.61,132.11 339.74,127.63 331.32,127.94 "
       id="polygon48" />
  </g>
  <line
     class="cls-7"
     x1="346.78"
     y1="39.779999"
     x2="382.32999"
     y2="57.560001"
     id="line48" />
  <line
     class="cls-7"
     x1="346.78"
     y1="111.78"
     x2="382.32999"
     y2="129.56"
     id="line49" />
  <g
     id="g51">
    <line
       class="cls-7"
       x1="375.78"
       y1="60.41"
       x2="375.78"
       y2="119.15"
       id="line50" />
    <polygon
       class="cls-15"
       points="373.6,61.89 375.78,53.76 377.96,61.89 "
       id="polygon50" />
    <polygon
       class="cls-15"
       points="373.6,117.66 375.78,125.79 377.96,117.66 "
       id="polygon51" />
  </g>
  <text
     class="cls-14"
     id="text51"
     x="226.67"
     y="174.53999"><tspan
       x="226.67"
       y="174.53999"
       id="tspan51">3000 mm</tspan></text>
  <text
     class="cls-14"
     id="text52"
     x="32.490002"
     y="123.54"><tspan
       x="32.490002"
       y="123.54"
       id="tspan52">300 mm</tspan></text>
  <text
     class="cls-14"
     id="text53"
     x="128.56"
     y="222.73"><tspan
       x="128.56"
       y="222.73"
       id="tspan53">100 mm</tspan></text>
  <g
     id="g53">
    <polyline
       class="cls-7"
       points="128.39 200.58 136.38 204.58 136.38 211.61"
       id="polyline53" />
    <polygon
       class="cls-15"
       points="128.74,203.2 122.44,197.61 130.69,199.3 "
       id="polygon53" />
  </g>
  <g
     id="g54">
    <path
       class="cls-6"
       d="m 48.44,145.77 c 1.59,-2.67 3.68,-4.29 5.97,-4.29 4.99,0 9.04,7.7 9.04,17.19 0,9.49 -4.05,17.19 -9.04,17.19 -2.77,0 -5.25,-2.38 -6.91,-6.12"
       id="path53" />
    <polygon
       class="cls-12"
       points="51.25,145.6 44.81,151.86 47.26,143.22 "
       id="polygon54" />
  </g>
  <text
     class="cls-13"
     id="text54"
     x="5.4299998"
     y="153.67999"><tspan
       x="5.4299998"
       y="153.67999"
       id="tspan54">5 kNm</tspan></text>
  <text
     class="cls-14"
     id="text55"
     x="379.01999"
     y="95.849998"><tspan
       x="379.01999"
       y="95.849998"
       id="tspan55">400 mm</tspan></text>
</svg>
