<?xml version="1.0" encoding="UTF-8" standalone="no"?>
<svg
   id="Layer_1"
   data-name="Layer 1"
   viewBox="0 0 146206.81 15555.079"
   version="1.1"
   width="146206.81"
   height="15555.079"
   xmlns:xlink="http://www.w3.org/1999/xlink"
   xmlns="http://www.w3.org/2000/svg"
   xmlns:svg="http://www.w3.org/2000/svg">
  <defs
     id="defs32">
    <pattern
       xlink:href="#_10_lpi_10_-7"
       id="pattern84"
       patternTransform="matrix(0.35864743,-0.45582016,0.43337977,0.38716787,-1732.9086,-8320.5718)" />
    <style
       id="style1">
      .cls-1 {
        letter-spacing: 0em;
      }

      .cls-2 {
        letter-spacing: 0em;
      }

      .cls-3 {
        stroke-width: 2.12px;
      }

      .cls-3, .cls-4, .cls-5, .cls-6, .cls-7, .cls-8, .cls-9, .cls-10, .cls-11, .cls-12, .cls-13, .cls-14, .cls-15, .cls-16 {
        stroke: #231f20;
      }

      .cls-3, .cls-4, .cls-17 {
        fill: #fff;
      }

      .cls-3, .cls-4, .cls-10, .cls-13 {
        stroke-miterlimit: 10;
      }

      .cls-18, .cls-19, .cls-20, .cls-21, .cls-22, .cls-23 {
        fill: #231f20;
      }

      .cls-4, .cls-9, .cls-10, .cls-13 {
        stroke-width: .5px;
      }

      .cls-5, .cls-6, .cls-7, .cls-8, .cls-9, .cls-11, .cls-12, .cls-15, .cls-16 {
        stroke-linejoin: round;
      }

      .cls-5, .cls-8 {
        fill: #bcbec0;
      }

      .cls-6 {
        fill: url(#linear-gradient-2);
      }

      .cls-24 {
        letter-spacing: 0em;
      }

      .cls-25, .cls-7, .cls-9, .cls-10, .cls-11, .cls-13, .cls-14 {
        fill: none;
      }

      .cls-26 {
        letter-spacing: -.01em;
      }

      .cls-27 {
        letter-spacing: .02em;
      }

      .cls-8, .cls-15, .cls-16 {
        stroke-width: .75px;
      }

      .cls-10 {
        stroke-dasharray: 1.93 1.93;
      }

      .cls-19 {
        font-size: 9px;
      }

      .cls-19, .cls-23 {
        font-family: ArialMT, Arial;
      }

      .cls-28 {
        letter-spacing: 0em;
      }

      .cls-29 {
        letter-spacing: -.02em;
      }

      .cls-11 {
        stroke-width: .25px;
      }

      .cls-20 {
        font-family: Georgia, Georgia;
        font-size: 7px;
      }

      .cls-21, .cls-22 {
        font-family: MyriadPro-Regular, 'Myriad Pro';
      }

      .cls-12 {
        fill: url(#linear-gradient);
      }

      .cls-30, .cls-22, .cls-23 {
        font-size: 12px;
      }

      .cls-31 {
        font-size: 10px;
      }

      .cls-14 {
        stroke-width: .72px;
      }

      .cls-32 {
        letter-spacing: -.01em;
      }

      .cls-33 {
        letter-spacing: -.02em;
      }

      .cls-23 {
        letter-spacing: -.04em;
      }

      .cls-34 {
        letter-spacing: .01em;
      }

      .cls-15 {
        fill: url(#_10_lpi_10_);
      }

      .cls-16 {
        fill: #808285;
      }
    </style>
    <linearGradient
       id="linear-gradient"
       x1="167.67999"
       y1="78.190002"
       x2="167.67"
       y2="78.220001"
       gradientUnits="userSpaceOnUse">
      <stop
         offset=".49"
         stop-color="#bcbec0"
         id="stop31" />
      <stop
         offset=".96"
         stop-color="#58595b"
         id="stop32" />
    </linearGradient>
    <linearGradient
       id="linear-gradient-2"
       x1="108.42"
       y1="35.900002"
       x2="101.19"
       y2="56.889999"
       xlink:href="#linear-gradient" />
    <pattern
       id="_10_lpi_10_-7"
       data-name="10 lpi 10%"
       x="0"
       y="0"
       width="72"
       height="72"
       patternTransform="translate(-1737.1687 -8323.7972) rotate(-51.8037) scale(.58) skewX(-3.5803)"
       patternUnits="userSpaceOnUse"
       viewBox="0 0 72 72">
      <g
         id="g31-9">
        <rect
           width="72"
           height="72"
           fill="none"
           id="rect1-8" />
        <g
           id="g10-1">
          <line
             x1="71.75"
             y1="68.4"
             x2="144.25"
             y2="68.4"
             fill="none"
             stroke="#231f20"
             stroke-width=".72"
             id="line1-6" />
          <line
             x1="71.75"
             y1="54"
             x2="144.25"
             y2="54"
             fill="none"
             stroke="#231f20"
             stroke-width=".72"
             id="line2-4" />
          <line
             x1="71.75"
             y1="39.6"
             x2="144.25"
             y2="39.6"
             fill="none"
             stroke="#231f20"
             stroke-width=".72"
             id="line3-0" />
          <line
             x1="71.75"
             y1="25.2"
             x2="144.25"
             y2="25.2"
             fill="none"
             stroke="#231f20"
             stroke-width=".72"
             id="line4-8" />
          <line
             x1="71.75"
             y1="10.8"
             x2="144.25"
             y2="10.8"
             fill="none"
             stroke="#231f20"
             stroke-width=".72"
             id="line5-8" />
          <line
             x1="71.75"
             y1="61.2"
             x2="144.25"
             y2="61.2"
             fill="none"
             stroke="#231f20"
             stroke-width=".72"
             id="line6-9" />
          <line
             x1="71.75"
             y1="46.8"
             x2="144.25"
             y2="46.8"
             fill="none"
             stroke="#231f20"
             stroke-width=".72"
             id="line7-7" />
          <line
             x1="71.75"
             y1="32.4"
             x2="144.25"
             y2="32.4"
             fill="none"
             stroke="#231f20"
             stroke-width=".72"
             id="line8-2" />
          <line
             x1="71.75"
             y1="18"
             x2="144.25"
             y2="18"
             fill="none"
             stroke="#231f20"
             stroke-width=".72"
             id="line9-9" />
          <line
             x1="71.75"
             y1="3.6"
             x2="144.25"
             y2="3.6"
             fill="none"
             stroke="#231f20"
             stroke-width=".72"
             id="line10-2" />
        </g>
        <g
           id="g20-0">
          <line
             x1="-.25"
             y1="68.4"
             x2="72.25"
             y2="68.4"
             fill="none"
             stroke="#231f20"
             stroke-width=".72"
             id="line11-2" />
          <line
             x1="-.25"
             y1="54"
             x2="72.25"
             y2="54"
             fill="none"
             stroke="#231f20"
             stroke-width=".72"
             id="line12-3" />
          <line
             x1="-.25"
             y1="39.6"
             x2="72.25"
             y2="39.6"
             fill="none"
             stroke="#231f20"
             stroke-width=".72"
             id="line13-8" />
          <line
             x1="-.25"
             y1="25.2"
             x2="72.25"
             y2="25.2"
             fill="none"
             stroke="#231f20"
             stroke-width=".72"
             id="line14-7" />
          <line
             x1="-.25"
             y1="10.8"
             x2="72.25"
             y2="10.8"
             fill="none"
             stroke="#231f20"
             stroke-width=".72"
             id="line15-7" />
          <line
             x1="-.25"
             y1="61.2"
             x2="72.25"
             y2="61.2"
             fill="none"
             stroke="#231f20"
             stroke-width=".72"
             id="line16-4" />
          <line
             x1="-.25"
             y1="46.8"
             x2="72.25"
             y2="46.8"
             fill="none"
             stroke="#231f20"
             stroke-width=".72"
             id="line17-8" />
          <line
             x1="-.25"
             y1="32.4"
             x2="72.25"
             y2="32.4"
             fill="none"
             stroke="#231f20"
             stroke-width=".72"
             id="line18-9" />
          <line
             x1="-.25"
             y1="18"
             x2="72.25"
             y2="18"
             fill="none"
             stroke="#231f20"
             stroke-width=".72"
             id="line19-0" />
          <line
             x1="-.25"
             y1="3.6"
             x2="72.25"
             y2="3.6"
             fill="none"
             stroke="#231f20"
             stroke-width=".72"
             id="line20-7" />
        </g>
        <g
           id="g30-7">
          <line
             x1="-72.25"
             y1="68.4"
             x2=".25"
             y2="68.4"
             fill="none"
             stroke="#231f20"
             stroke-width=".72"
             id="line21-7" />
          <line
             x1="-72.25"
             y1="54"
             x2=".25"
             y2="54"
             fill="none"
             stroke="#231f20"
             stroke-width=".72"
             id="line22-0" />
          <line
             x1="-72.25"
             y1="39.6"
             x2=".25"
             y2="39.6"
             fill="none"
             stroke="#231f20"
             stroke-width=".72"
             id="line23-8" />
          <line
             x1="-72.25"
             y1="25.2"
             x2=".25"
             y2="25.2"
             fill="none"
             stroke="#231f20"
             stroke-width=".72"
             id="line24-1" />
          <line
             x1="-72.25"
             y1="10.8"
             x2=".25"
             y2="10.8"
             fill="none"
             stroke="#231f20"
             stroke-width=".72"
             id="line25-9" />
          <line
             x1="-72.25"
             y1="61.2"
             x2=".25"
             y2="61.2"
             fill="none"
             stroke="#231f20"
             stroke-width=".72"
             id="line26-8" />
          <line
             x1="-72.25"
             y1="46.8"
             x2=".25"
             y2="46.8"
             fill="none"
             stroke="#231f20"
             stroke-width=".72"
             id="line27-9" />
          <line
             x1="-72.25"
             y1="32.4"
             x2=".25"
             y2="32.4"
             fill="none"
             stroke="#231f20"
             stroke-width=".72"
             id="line28-7" />
          <line
             x1="-72.25"
             y1="18"
             x2=".25"
             y2="18"
             fill="none"
             stroke="#231f20"
             stroke-width=".72"
             id="line29-1" />
          <line
             x1="-72.25"
             y1="3.6"
             x2=".25"
             y2="3.6"
             fill="none"
             stroke="#231f20"
             stroke-width=".72"
             id="line30-9" />
        </g>
      </g>
    </pattern>
    <linearGradient
       xlink:href="#linear-gradient"
       id="linearGradient84"
       gradientUnits="userSpaceOnUse"
       x1="167.67999"
       y1="78.190002"
       x2="167.67"
       y2="78.220001" />
  </defs>
  <path
     d="m 77.540105,8.5554232 c -7,-5.68 -17.81,-5.06 -22.6,-4.79 -3.93,0.23 -21.2,1.21 -25.42,9.5899998 -1.86,3.7 0.16,6.2 -2.82,11.98 -1.98,3.84 -4.08,5.07 -5.65,7.19 -6.85,9.22 0.76,29.11 11.3,31.15 6.76,1.31 9.14,-5.81 25.42,-9.59 6.06,-1.41 5.96,-0.47 16.94,-2.4 13.02,-2.28 19.59,-3.5 22.59,-7.19 3.859995,-4.74 3.139995,-12.05 0,-16.77 -3.25,-4.89 -7.47,-4.56 -14.12,-11.98 -3.88,-4.33 -2.93,-4.98 -5.65,-7.1899998 z"
     fill="url(#_10_lpi_10_)"
     stroke="#231f20"
     stroke-linejoin="round"
     stroke-width="0.75"
     id="path32"
     style="fill:url(#pattern84)" />
  <g
     id="g55"
     transform="translate(4.2601048,3.2254232)">
    <polygon
       points="148.17,48.58 165.52,67.74 184.26,73.99 184.26,60.61 "
       fill="#808285"
       stroke="#231f20"
       stroke-linejoin="round"
       stroke-width="0.75"
       id="polygon32" />
    <polyline
       points="167.79 78.23 184.26 73.99 165.52 67.74 159.62 69.47 152.43 73.16"
       fill="#bcbec0"
       stroke="#231f20"
       stroke-linejoin="round"
       stroke-width="0.75"
       id="polyline32" />
    <line
       x1="62.009998"
       y1="16.610001"
       x2="89.059998"
       y2="8.9200001"
       fill="none"
       stroke="#009444"
       stroke-linejoin="round"
       stroke-width="0.5"
       id="line32" />
    <g
       id="g33">
      <line
         x1="51.540001"
         y1="26.57"
         x2="51.540001"
         y2="59.02"
         fill="none"
         stroke="#231f20"
         stroke-miterlimit="10"
         stroke-width="0.5"
         id="line33" />
      <polygon
         points="52.71,58.23 50.38,58.23 51.54,62.57 "
         fill="#231f20"
         id="polygon33" />
    </g>
    <text
       transform="translate(212.38,81.02)"
       fill="#231f20"
       font-family="Georgia, Georgia"
       font-size="7px"
       id="text33"><tspan
         x="0"
         y="0"
         id="tspan33">z</tspan></text>
    <text
       transform="translate(50.3,67.31)"
       fill="#231f20"
       font-family="Georgia, Georgia"
       font-size="7px"
       id="text34"><tspan
         x="0"
         y="0"
         id="tspan34">y</tspan></text>
    <g
       id="g36">
      <line
         x1="29.4"
         y1="32.869999"
         x2="4.1999998"
         y2="37.77"
         fill="#ffffff"
         id="line34" />
      <g
         id="g35">
        <line
           x1="29.4"
           y1="32.869999"
           x2="7.6700001"
           y2="37.09"
           fill="none"
           stroke="#231f20"
           stroke-miterlimit="10"
           stroke-width="0.5"
           id="line35" />
        <polygon
           points="8.67,38.08 8.23,35.8 4.2,37.77 "
           fill="#231f20"
           id="polygon35" />
      </g>
    </g>
    <text
       transform="translate(0,39.07)"
       fill="#231f20"
       font-family="Georgia, Georgia"
       font-size="7px"
       id="text36"><tspan
         x="0"
         y="0"
         id="tspan36">x</tspan></text>
    <text
       transform="translate(69.77,81.02)"
       fill="#3a75bb"
       font-family="AtkinsonHyperlegibleNext-Regular, 'Atkinson Hyperlegible Next'"
       font-size="9px"
       id="text40"><tspan
         x="0"
         y="0"
         letter-spacing="-0.02em"
         id="tspan37">T</tspan><tspan
         x="4.8400002"
         y="0"
         xml:space="preserve"
         id="tspan38"> = 5 kNm</tspan><tspan
         x="41.619999"
         y="0"
         letter-spacing="-0.03em"
         id="tspan39">/</tspan><tspan
         x="44.830002"
         y="0"
         letter-spacing="0em"
         id="tspan40">m</tspan></text>
    <text
       transform="rotate(20,1.2385619,424.55191)"
       fill="#009444"
       font-family="AtkinsonHyperlegibleNext-Regular, 'Atkinson Hyperlegible Next'"
       font-size="12px"
       id="text41"><tspan
         x="0"
         y="0"
         id="tspan41">L</tspan></text>
    <line
       x1="187.88"
       y1="59.299999"
       x2="216.14999"
       y2="51.27"
       fill="none"
       stroke="#009444"
       stroke-linejoin="round"
       stroke-width="0.5"
       id="line41" />
    <g
       id="g43">
      <line
         x1="88.760002"
         y1="10.61"
         x2="209.36"
         y2="51.09"
         fill="none"
         stroke="#009444"
         stroke-linejoin="round"
         stroke-width="0.5"
         id="line42" />
      <polygon
         points="89.6,9.98 89.05,11.63 86.24,9.77 "
         fill="#009444"
         id="polygon42" />
      <polygon
         points="209.07,50.08 208.52,51.73 211.88,51.94 "
         fill="#009444"
         id="polygon43" />
    </g>
    <path
       d="m 106.5,63.32 c -3.43,0.17 -4.49,0.94 -4.75,1.69 -0.33,0.93 0.62,1.68 0.5,3 -0.14,1.55 -1.62,2.71 -3,3.5"
       fill="none"
       stroke="#3a75bb"
       stroke-linejoin="round"
       stroke-width="0.5"
       id="path43" />
    <g
       id="g45">
      <path
         d="m 167.56,78.18 0.23,0.08 v -0.02 c -0.07,-0.01 -0.15,-0.03 -0.23,-0.05 z"
         fill="url(#linear-gradient)"
         stroke="#231f20"
         stroke-linejoin="round"
         id="path44"
         style="fill:url(#linearGradient84)" />
      <path
         d="m 166.59,77.86 c -1.74,-0.78 -2.87,-2.52 -2.87,-4.82 0,-3.81 3.08,-7.72 6.89,-8.74 l 2.95,-0.79 0.37,-0.95 -113.88,-37.79 -3.35,-6.68 -13.77,3.69 -0.44,-0.15 -0.05,0.3 c -3.58,1.21 -6.4,4.94 -6.4,8.58 0,2.75 1.62,4.68 3.95,5.16 l -0.02,0.12 126.63,42.05 z"
         fill="url(#linear-gradient-2)"
         stroke="#231f20"
         stroke-linejoin="round"
         id="path45"
         style="fill:url(#linear-gradient-2)" />
    </g>
    <polyline
       points="169.89 64.3 184.26 60.61 56.7 18.09 42.52 21.63"
       fill="#bcbec0"
       stroke="#231f20"
       stroke-linejoin="round"
       id="polyline45" />
    <g
       id="g46">
      <path
         d="m 131.18,69.84 c -14.52,0 -9.72,-20.47 -0.15,-22.33"
         fill="none"
         stroke="#3a75bb"
         stroke-miterlimit="10"
         stroke-width="0.5"
         id="path46" />
      <polygon
         points="130.14,46.15 129.92,49.05 135.44,48 "
         fill="#3a75bb"
         id="polygon46" />
    </g>
    <g
       id="g47">
      <path
         d="m 113.26,63.89 c -14.52,0 -9.72,-20.47 -0.15,-22.33"
         fill="none"
         stroke="#3a75bb"
         stroke-miterlimit="10"
         stroke-width="0.5"
         id="path47" />
      <polygon
         points="112.22,40.2 112.01,43.1 117.52,42.04 "
         fill="#3a75bb"
         id="polygon47" />
    </g>
    <g
       id="g48">
      <path
         d="m 59.51,46.46 c -14.52,0 -9.72,-20.47 -0.15,-22.33"
         fill="none"
         stroke="#3a75bb"
         stroke-miterlimit="10"
         stroke-width="0.5"
         id="path48" />
      <polygon
         points="58.47,22.77 58.25,25.67 63.77,24.62 "
         fill="#3a75bb"
         id="polygon48" />
    </g>
    <g
       id="g49">
      <path
         d="m 41.59,40.15 c -14.52,0 -9.72,-20.47 -0.15,-22.33"
         fill="none"
         stroke="#3a75bb"
         stroke-miterlimit="10"
         stroke-width="0.5"
         id="path49" />
      <polygon
         points="40.55,16.46 40.34,19.35 45.85,18.3 "
         fill="#3a75bb"
         id="polygon49" />
    </g>
    <g
       id="g50">
      <path
         d="m 149.1,76.04 c -14.52,0 -9.72,-20.47 -0.15,-22.33"
         fill="none"
         stroke="#3a75bb"
         stroke-miterlimit="10"
         stroke-width="0.5"
         id="path50" />
      <polygon
         points="148.05,52.35 147.84,55.25 153.35,54.2 "
         fill="#3a75bb"
         id="polygon50" />
    </g>
    <g
       id="g51">
      <path
         d="m 167.01,82.02 c -14.52,0 -9.72,-20.47 -0.15,-22.33"
         fill="none"
         stroke="#3a75bb"
         stroke-miterlimit="10"
         stroke-width="0.5"
         id="path51" />
      <polygon
         points="165.97,58.33 165.76,61.23 171.27,60.18 "
         fill="#3a75bb"
         id="polygon51" />
    </g>
    <g
       id="g52">
      <path
         d="m 77.43,52.46 c -14.52,0 -9.72,-20.47 -0.15,-22.33"
         fill="none"
         stroke="#3a75bb"
         stroke-miterlimit="10"
         stroke-width="0.5"
         id="path52" />
      <polygon
         points="76.38,28.77 76.17,31.67 81.68,30.62 "
         fill="#3a75bb"
         id="polygon52" />
    </g>
    <g
       id="g53">
      <path
         d="m 95.34,58.12 c -14.52,0 -9.72,-20.47 -0.15,-22.33"
         fill="none"
         stroke="#3a75bb"
         stroke-miterlimit="10"
         stroke-width="0.5"
         id="path53" />
      <polygon
         points="94.3,34.43 94.09,37.32 99.6,36.27 "
         fill="#3a75bb"
         id="polygon53" />
    </g>
    <g
       id="g54">
      <line
         x1="174.41"
         y1="69.019997"
         x2="206.86"
         y2="79.269997"
         fill="none"
         stroke="#231f20"
         stroke-linejoin="round"
         stroke-width="0.5"
         id="line53" />
      <polygon
         points="206.46,77.92 205.76,80.14 210.24,80.33 "
         fill="#231f20"
         id="polygon54" />
    </g>
    <line
       x1="42.52"
       y1="21.629999"
       x2="170.48"
       y2="64.300003"
       fill="none"
       stroke="#231f20"
       stroke-linejoin="round"
       stroke-width="0.25"
       id="line54" />
    <path
       d="m 170.48,64.3 c -3.81,1.02 -6.89,4.93 -6.89,8.74 0,3.81 3.08,6.06 6.89,5.04 l 13.78,-3.69 V 60.61 Z"
       fill="none"
       stroke="#231f20"
       stroke-linejoin="round"
       id="path54" />
  </g>
  <path
     d="m 287.91831,35.070105 c -11.42,0 -20.67,9.25 -20.67,20.67 0,11.42 9.25,20.67 20.67,20.67 h 41.34 v -41.34 z"
     fill="none"
     stroke="#231f20"
     stroke-miterlimit="10"
     stroke-width="2.12"
     id="path55" />
  <line
     x1="332.79831"
     y1="35.070103"
     x2="350.51831"
     y2="35.070103"
     fill="#ffffff"
     stroke="#009444"
     stroke-miterlimit="10"
     stroke-width="0.5"
     id="line55" />
  <line
     x1="332.79831"
     y1="77.590111"
     x2="350.51831"
     y2="77.590111"
     fill="none"
     stroke="#009444"
     stroke-miterlimit="10"
     stroke-width="0.5"
     id="line56" />
  <g
     id="g58"
     transform="translate(-0.27168773,-0.73989527)">
    <line
       x1="347.25"
       y1="40.240002"
       x2="347.25"
       y2="73.900002"
       fill="none"
       stroke="#009444"
       stroke-miterlimit="10"
       stroke-width="0.5"
       id="line57" />
    <polygon
       points="345.79,41.23 347.25,35.81 348.7,41.23 "
       fill="#009444"
       id="polygon57" />
    <polygon
       points="345.79,72.91 347.25,78.33 348.7,72.91 "
       fill="#009444"
       id="polygon58" />
  </g>
  <text
     fill="#009444"
     font-family="AtkinsonHyperlegibleNext-Regular, 'Atkinson Hyperlegible Next'"
     font-size="12px"
     id="text59"
     x="350.51831"
     y="59.870106"><tspan
       x="350.51831"
       y="59.870106"
       id="tspan58">2</tspan><tspan
       x="357.0983"
       y="59.870106"
       letter-spacing="-0.02em"
       id="tspan59">r</tspan></text>
  <line
     x1="286.73831"
     y1="31.52009"
     x2="286.73831"
     y2="13.810108"
     fill="#009444"
     stroke="#009444"
     stroke-miterlimit="10"
     stroke-width="0.5"
     id="line59" />
  <line
     x1="329.2583"
     y1="31.52009"
     x2="329.2583"
     y2="13.810108"
     fill="#009444"
     stroke="#009444"
     stroke-miterlimit="10"
     stroke-width="0.5"
     id="line60" />
  <g
     id="g62"
     transform="translate(-0.27168773,-0.73989527)">
    <line
       x1="291.44"
       y1="18.09"
       x2="325.10001"
       y2="18.09"
       fill="none"
       stroke="#009444"
       stroke-miterlimit="10"
       stroke-width="0.5"
       id="line61" />
    <polygon
       points="292.43,19.54 287.01,18.09 292.43,16.64 "
       fill="#009444"
       id="polygon61" />
    <polygon
       points="324.11,19.54 329.53,18.09 324.11,16.64 "
       fill="#009444"
       id="polygon62" />
  </g>
  <text
     fill="#009444"
     font-family="MyriadPro-Regular, 'Myriad Pro'"
     font-size="12px"
     id="text62"
     x="304.45831"
     y="13.810108"><tspan
       x="304.45831"
       y="13.810108"
       id="tspan62">2r</tspan></text>
  <g
     id="g64"
     transform="translate(-0.27168773,-0.73989527)">
    <line
       x1="287.01001"
       y1="35.810001"
       x2="287.01001"
       y2="36.810001"
       fill="none"
       stroke="#231f20"
       stroke-miterlimit="10"
       stroke-width="0.5"
       id="line62" />
    <line
       x1="287.01001"
       y1="38.740002"
       x2="287.01001"
       y2="76.360001"
       fill="none"
       stroke="#231f20"
       stroke-dasharray="1.93, 1.93"
       stroke-miterlimit="10"
       stroke-width="0.5"
       id="line63" />
    <line
       x1="287.01001"
       y1="77.330002"
       x2="287.01001"
       y2="78.330002"
       fill="none"
       stroke="#231f20"
       stroke-miterlimit="10"
       stroke-width="0.5"
       id="line64" />
  </g>
  <g
     id="g65"
     transform="translate(-0.27168773,-0.73989527)">
    <line
       x1="272.67999"
       y1="62.799999"
       x2="287.01001"
       y2="57.07"
       fill="none"
       stroke="#009444"
       stroke-miterlimit="10"
       stroke-width="0.5"
       id="line65" />
    <polygon
       points="273.84,63.59 269.39,64.12 272.98,61.43 "
       fill="#009444"
       id="polygon65" />
    <path
       d="m 287.43,58.12 c 0.58,-0.23 0.86,-0.89 0.63,-1.47 -0.23,-0.58 -0.89,-0.86 -1.47,-0.63 -0.58,0.23 -0.86,0.89 -0.63,1.47 0.23,0.58 0.89,0.86 1.47,0.63 z"
       fill="#009444"
       id="path65" />
  </g>
  <text
     fill="#009444"
     font-family="AtkinsonHyperlegibleNext-Regular, 'Atkinson Hyperlegible Next'"
     font-size="12px"
     letter-spacing="-0.02em"
     id="text65"
     x="279.64832"
     y="66.960106"><tspan
       x="279.64832"
       y="66.960106"
       id="tspan65">r</tspan></text>
  <g
     id="g66"
     transform="translate(-0.27168773,-0.73989527)">
    <line
       x1="315.35999"
       y1="25.18"
       x2="315.35999"
       y2="31.379999"
       fill="none"
       stroke="#009444"
       stroke-miterlimit="10"
       stroke-width="0.5"
       id="line66" />
    <polygon
       points="313.91,30.39 315.36,35.81 316.81,30.39 "
       fill="#009444"
       id="polygon66" />
  </g>
  <g
     id="g67"
     transform="translate(-0.27168773,-0.73989527)">
    <line
       x1="315.35999"
       y1="40.240002"
       x2="315.35999"
       y2="46.439999"
       fill="none"
       stroke="#009444"
       stroke-miterlimit="10"
       stroke-width="0.5"
       id="line67" />
    <polygon
       points="313.91,41.23 315.36,35.81 316.81,41.23 "
       fill="#009444"
       id="polygon67" />
  </g>
  <text
     fill="#009444"
     font-family="AtkinsonHyperlegibleNext-Regular, 'Atkinson Hyperlegible Next'"
     font-size="12px"
     id="text67"
     x="315.08829"
     y="56.330112"><tspan
       x="315.08829"
       y="56.330112"
       id="tspan67">t</tspan></text>
  <g
     id="g68"
     transform="translate(-0.27168773,-0.73989527)">
    <line
       x1="297.64001"
       y1="57.07"
       x2="297.64001"
       y2="84.529999"
       fill="none"
       stroke="#231f20"
       stroke-miterlimit="10"
       stroke-width="0.5"
       id="line68" />
    <polygon
       points="296.19,83.54 297.64,88.96 299.09,83.54 "
       fill="#231f20"
       id="polygon68" />
  </g>
  <g
     id="g69"
     transform="translate(-0.27168773,-0.73989527)">
    <line
       x1="297.64001"
       y1="57.07"
       x2="256.01001"
       y2="57.07"
       fill="none"
       stroke="#231f20"
       stroke-miterlimit="10"
       stroke-width="0.5"
       id="line69" />
    <polygon
       points="257,55.62 251.58,57.07 257,58.52 "
       fill="#231f20"
       id="polygon69" />
  </g>
  <text
     fill="#231f20"
     font-family="Georgia, Georgia"
     font-size="7px"
     id="text69"
     x="244.21829"
     y="56.330112"><tspan
       x="244.21829"
       y="56.330112"
       id="tspan69">x</tspan></text>
  <text
     fill="#231f20"
     font-family="Georgia, Georgia"
     font-size="7px"
     id="text70"
     x="293.82831"
     y="95.300117"><tspan
       x="293.82831"
       y="95.300117"
       id="tspan70">y</tspan></text>
  <text
     fill="#231f20"
     font-family="AtkinsonHyperlegibleNext-Regular, 'Atkinson Hyperlegible Next'"
     id="text93"
     x="244.8483"
     y="109.48011"><tspan
       font-size="12px"
       id="tspan83"><tspan
         x="244.8483"
         y="109.48011"
         id="tspan71">Wing</tspan><tspan
         x="271.43829"
         y="109.48011"
         letter-spacing="0em"
         id="tspan72">b</tspan><tspan
         x="278.26831"
         y="109.48011"
         letter-spacing="-0.02em"
         id="tspan73">o</tspan><tspan
         x="284.60831"
         y="109.48011"
         id="tspan74">x c</tspan><tspan
         x="299.55829"
         y="109.48011"
         letter-spacing="-0.01em"
         id="tspan75">r</tspan><tspan
         x="303.58832"
         y="109.48011"
         letter-spacing="0em"
         id="tspan76">o</tspan><tspan
         x="310.07831"
         y="109.48011"
         letter-spacing="0em"
         id="tspan77">ss-</tspan><tspan
         x="325.7283"
         y="109.48011"
         letter-spacing="0em"
         id="tspan78">s</tspan><tspan
         x="331.35831"
         y="109.48011"
         id="tspan79">e</tspan><tspan
         x="337.80829"
         y="109.48011"
         letter-spacing="0.02em"
         id="tspan80">c</tspan><tspan
         x="343.86829"
         y="109.48011"
         letter-spacing="0em"
         id="tspan81">t</tspan><tspan
         x="347.85831"
         y="109.48011"
         letter-spacing="0em"
         id="tspan82">ion</tspan></tspan><tspan
       font-size="10px"
       id="tspan93"><tspan
         x="260.7283"
         y="121.48011"
         letter-spacing="-0.04em"
         id="tspan84">(</tspan><tspan
         x="263.3183"
         y="121.48011"
         letter-spacing="0em"
         id="tspan85">c</tspan><tspan
         x="268.0683"
         y="121.48011"
         letter-spacing="0em"
         id="tspan86">on</tspan><tspan
         x="279.04831"
         y="121.48011"
         letter-spacing="0em"
         id="tspan87">s</tspan><tspan
         x="283.73831"
         y="121.48011"
         id="tspan88">ta</tspan><tspan
         x="292.24829"
         y="121.48011"
         letter-spacing="-0.02em"
         id="tspan89">n</tspan><tspan
         x="297.57831"
         y="121.48011"
         id="tspan90">t thi</tspan><tspan
         x="314.9183"
         y="121.48011"
         letter-spacing="0.02em"
         id="tspan91">c</tspan><tspan
         x="319.96829"
         y="121.48011"
         id="tspan92">kness)</tspan></tspan></text>
</svg>
