<?xml version="1.0" encoding="UTF-8"?>
<svg id="Layer_1" data-name="Layer 1" xmlns="http://www.w3.org/2000/svg" viewBox="0 0 286.22 410">
  <defs>
    <style>
      .cls-1 {
        letter-spacing: .01em;
      }

      .cls-2, .cls-3, .cls-4, .cls-5, .cls-6, .cls-7, .cls-8, .cls-9 {
        fill: none;
      }

      .cls-2, .cls-3, .cls-5, .cls-6, .cls-7, .cls-8, .cls-9 {
        stroke-miterlimit: 10;
      }

      .cls-2, .cls-3, .cls-9 {
        stroke: #009444;
      }

      .cls-3, .cls-6, .cls-7, .cls-8 {
        stroke-width: .75px;
      }

      .cls-10 {
        letter-spacing: -.01em;
      }

      .cls-10, .cls-11, .cls-12, .cls-13 {
        fill: #231f20;
      }

      .cls-10, .cls-13 {
        font-family: AtkinsonHyperlegibleNext-RegularItalic, 'Atkinson Hyperlegible Next';
        font-size: 14px;
      }

      .cls-10, .cls-13, .cls-14 {
        font-style: italic;
      }

      .cls-11 {
        font-family: AtkinsonHyperlegibleNext-Light, 'Atkinson Hyperlegible Next';
        font-size: 12px;
        font-weight: 300;
      }

      .cls-4 {
        stroke-linejoin: round;
        stroke-width: 4px;
      }

      .cls-4, .cls-6, .cls-7, .cls-8 {
        stroke: #231f20;
      }

      .cls-15 {
        fill: #fff;
      }

      .cls-14 {
        font-family: MyriadPro-It, 'Myriad Pro';
      }

      .cls-14, .cls-16, .cls-17 {
        fill: #009444;
      }

      .cls-14, .cls-17, .cls-18 {
        font-size: 16px;
      }

      .cls-5 {
        stroke: #be1e2d;
        stroke-width: 1.5px;
      }

      .cls-19, .cls-18 {
        fill: #be1e2d;
      }

      .cls-6 {
        stroke-dasharray: 3.84 3.84;
      }

      .cls-17 {
        font-family: AtkinsonHyperlegibleNext-Regular, 'Atkinson Hyperlegible Next';
      }

      .cls-7 {
        stroke-dasharray: 9.59 3.84 3.84 3.84;
      }

      .cls-18 {
        font-family: AtkinsonHyperlegibleNext-SemiBold, 'Atkinson Hyperlegible Next';
        font-weight: 600;
      }

      .cls-9 {
        stroke-width: .9px;
      }
    </style>
  </defs>
  <path class="cls-9" d="M197.78,205c0-20.05-13.89-37.82-35.33-48.87"/>
  <g>
    <line class="cls-15" x1="96.45" y1="205" x2="256.33" y2="205"/>
    <g>
      <line class="cls-8" x1="96.45" y1="205" x2="251.86" y2="205"/>
      <polygon class="cls-12" points="249.75 207.78 250.93 205 249.75 202.22 256.33 205 249.75 207.78"/>
    </g>
  </g>
  <text class="cls-13" transform="translate(46.02 55.95)"><tspan x="0" y="0">1</tspan></text>
  <text class="cls-13" transform="translate(210.59 55.95)"><tspan x="0" y="0">2</tspan></text>
  <text class="cls-13" transform="translate(67.91 360.7)"><tspan x="0" y="0">3</tspan></text>
  <text class="cls-13" transform="translate(235.53 360.7)"><tspan x="0" y="0">4</tspan></text>
  <line class="cls-3" x1="58.33" y1="50" x2="58.33" y2="16"/>
  <line class="cls-3" x1="202.33" y1="50" x2="202.33" y2="16"/>
  <g>
    <line class="cls-3" x1="64.98" y1="24.22" x2="195.69" y2="24.22"/>
    <polygon class="cls-16" points="66.46 26.4 58.33 24.22 66.46 22.04 66.46 26.4"/>
    <polygon class="cls-16" points="194.2 26.4 202.33 24.22 194.2 22.04 194.2 26.4"/>
  </g>
  <text class="cls-17" transform="translate(100.68 16.19)"><tspan x="0" y="0">a = 60 mm</tspan></text>
  <polyline class="cls-4" points="58.33 61 202.33 61 85.33 349 229.33 349"/>
  <line class="cls-3" x1="229.33" y1="358" x2="229.33" y2="392"/>
  <line class="cls-3" x1="85.33" y1="358" x2="85.33" y2="392"/>
  <g>
    <line class="cls-3" x1="222.69" y1="383.78" x2="91.98" y2="383.78"/>
    <polygon class="cls-16" points="221.2 381.6 229.33 383.78 221.2 385.96 221.2 381.6"/>
    <polygon class="cls-16" points="93.46 381.6 85.33 383.78 93.46 385.96 93.46 381.6"/>
  </g>
  <line class="cls-3" x1="63.97" y1="340" x2="31.33" y2="326.17"/>
  <line class="cls-3" x1="134.52" y1="201.39" x2="88.69" y2="181.96"/>
  <g>
    <line class="cls-3" x1="41.73" y1="323.36" x2="95.13" y2="191.91"/>
    <polygon class="cls-16" points="44.31 322.8 39.23 329.51 40.27 321.16 44.31 322.8"/>
    <polygon class="cls-16" points="96.59 194.1 97.63 185.75 92.55 192.46 96.59 194.1"/>
  </g>
  <text class="cls-13" transform="translate(146.16 217.85)"><tspan x="0" y="0">C</tspan></text>
  <text class="cls-13" transform="translate(261.16 208.33)"><tspan x="0" y="0">x</tspan></text>
  <g>
    <line class="cls-2" x1="176.44" y1="356.84" x2="176.44" y2="364.83"/>
    <polygon class="cls-16" points="174.41 358.23 176.44 350.64 178.48 358.23 174.41 358.23"/>
  </g>
  <g>
    <line class="cls-2" x1="176.44" y1="340.36" x2="176.44" y2="332.51"/>
    <polygon class="cls-16" points="178.48 338.98 176.44 346.56 174.41 338.98 178.48 338.98"/>
  </g>
  <text class="cls-17" transform="translate(174.45 329.01)"><tspan x="0" y="0">t = 1.5 mm</tspan></text>
  <text class="cls-14" transform="translate(183.41 162.24)"><tspan x="0" y="0">θ</tspan></text>
  <g>
    <line class="cls-8" x1="143.83" y1="205" x2="143.83" y2="118.59"/>
    <polygon class="cls-12" points="146.61 120.69 143.83 119.51 141.06 120.69 143.83 114.11 146.61 120.69"/>
  </g>
  <text class="cls-10" transform="translate(140.67 107.75)"><tspan x="0" y="0">y</tspan></text>
  <g>
    <line class="cls-5" x1="71.83" y1="204.94" x2="25.37" y2="204.94"/>
    <polygon class="cls-19" points="26.9 199.71 17.83 204.94 26.9 210.18 26.9 199.71"/>
  </g>
  <g>
    <line class="cls-5" x1="80.83" y1="204.94" x2="34.37" y2="204.94"/>
    <polygon class="cls-19" points="35.9 199.71 26.83 204.94 35.9 210.18 35.9 199.71"/>
  </g>
  <text class="cls-18" transform="translate(8.88 195.94)"><tspan x="0" y="0">M = 1 kNm</tspan></text>
  <g>
    <line class="cls-15" x1="83" y1="241" x2="247.17" y2="144.78"/>
    <g>
      <line class="cls-8" x1="83" y1="241" x2="87.31" y2="238.47"/>
      <line class="cls-6" x1="90.62" y1="236.53" x2="95.59" y2="233.62"/>
      <line class="cls-7" x1="97.24" y1="232.65" x2="241.2" y2="148.28"/>
      <line class="cls-8" x1="242.86" y1="147.31" x2="247.17" y2="144.78"/>
    </g>
  </g>
  <text class="cls-11" transform="translate(222.92 152.88) rotate(-29.85)"><tspan x="0" y="0">N</tspan><tspan class="cls-1" x="8.11" y="0">.A</tspan><tspan x="17.86" y="0">.</tspan></text>
  <path class="cls-9" d="M240.65,205c0-18.64-6.95-35.16-17.67-45.44"/>
  <text class="cls-14" transform="translate(240.65 180.56)"><tspan x="0" y="0">β</tspan></text>
  <text class="cls-17" transform="translate(120.22 401)"><tspan x="0" y="0">a = 60 mm</tspan></text>
  <text class="cls-17" transform="translate(45.14 303.84) rotate(-67.89)"><tspan x="0" y="0">a = 60 mm</tspan></text>
</svg>