<?xml version="1.0" encoding="UTF-8"?>
<svg id="Layer_1" data-name="Layer 1" xmlns="http://www.w3.org/2000/svg" viewBox="0 0 342 437.33">
  <defs>
    <style>
      .cls-1 {
        stroke-width: 2px;
      }

      .cls-1, .cls-2, .cls-3, .cls-4, .cls-5, .cls-6, .cls-7, .cls-8, .cls-9 {
        stroke-miterlimit: 10;
      }

      .cls-1, .cls-2, .cls-4, .cls-5, .cls-10, .cls-6, .cls-7, .cls-8, .cls-11, .cls-9 {
        fill: none;
      }

      .cls-1, .cls-2, .cls-6, .cls-8 {
        stroke: #231f20;
      }

      .cls-12, .cls-3, .cls-13 {
        opacity: .3;
      }

      .cls-12, .cls-14 {
        fill: #3a54a4;
      }

      .cls-12, .cls-10, .cls-13, .cls-11 {
        stroke-linejoin: round;
      }

      .cls-12, .cls-10, .cls-7 {
        stroke: #3a54a4;
      }

      .cls-2 {
        stroke-width: 4px;
      }

      .cls-15, .cls-16, .cls-17 {
        fill: #231f20;
      }

      .cls-18 {
        letter-spacing: .31em;
      }

      .cls-19 {
        fill: #fff;
      }

      .cls-3, .cls-20, .cls-13 {
        fill: #ed1c24;
      }

      .cls-3, .cls-5, .cls-13, .cls-11, .cls-9 {
        stroke: #ed1c24;
      }

      .cls-21 {
        letter-spacing: 0em;
      }

      .cls-22, .cls-23 {
        font-family: TimesNewRomanPSMT, 'Times New Roman';
      }

      .cls-22, .cls-24 {
        font-size: 8.77px;
      }

      .cls-16 {
        font-size: 14px;
      }

      .cls-16, .cls-24, .cls-25 {
        font-family: TimesNewRomanPS-ItalicMT, 'Times New Roman';
        font-style: italic;
      }

      .cls-4 {
        stroke: #000;
        stroke-linecap: square;
        stroke-width: .6px;
      }

      .cls-5, .cls-7 {
        stroke-width: .5px;
      }

      .cls-23, .cls-26, .cls-25 {
        font-size: 15.17px;
      }

      .cls-26 {
        font-family: SymbolMT, Symbol;
      }

      .cls-27 {
        letter-spacing: .31em;
      }

      .cls-6 {
        stroke-dasharray: 11.69 11.69;
      }

      .cls-6, .cls-8 {
        stroke-width: .75px;
      }

      .cls-28 {
        letter-spacing: .31em;
      }

      .cls-17 {
        font-family: MyriadPro-Regular, 'Myriad Pro';
        font-size: 12px;
      }

      .cls-29 {
        letter-spacing: .31em;
      }

      .cls-30 {
        letter-spacing: 0em;
      }
    </style>
  </defs>
  <polygon class="cls-3" points="228.67 352 291.67 352 291.67 388 228.67 352"/>
  <polygon class="cls-9" points="228.67 352 291.67 352 291.67 388 228.67 352"/>
  <polygon class="cls-10" points="147.67 307 147.67 352 228.67 352 147.67 307"/>
  <polygon class="cls-12" points="147.67 307 147.67 352 228.67 352 147.67 307"/>
  <polygon class="cls-10" points="147.67 352 192.67 352 147.67 208 147.67 352"/>
  <polygon class="cls-12" points="147.67 352 192.67 352 147.67 208 147.67 352"/>
  <polygon class="cls-11" points="147.67 64 102.67 64 147.67 208 147.67 64"/>
  <polygon class="cls-13" points="147.67 64 102.67 64 147.67 208 147.67 64"/>
  <polygon class="cls-3" points="75.67 64 75.67 68.5 147.67 109 147.67 64 75.67 64"/>
  <polygon class="cls-9" points="75.67 64 75.67 68.5 147.67 109 147.67 64 75.67 64"/>
  <line class="cls-1" x1="291.67" y1="352" x2="146" y2="352"/>
  <polyline class="cls-2" points="75.67 64 147.67 64 147.67 352"/>
  <g>
    <line class="cls-19" x1="258.77" y1="407.32" x2="54.58" y2="38.94"/>
    <g>
      <line class="cls-8" x1="258.77" y1="407.32" x2="255.86" y2="402.07"/>
      <line class="cls-6" x1="250.2" y1="391.85" x2="60.32" y2="49.3"/>
      <line class="cls-8" x1="57.48" y1="44.19" x2="54.58" y2="38.94"/>
    </g>
  </g>
  <text class="cls-17" transform="translate(167.45 228.41) rotate(61)"><tspan x="0" y="0">Neut</tspan><tspan class="cls-30" x="24.49" y="0">r</tspan><tspan x="28.36" y="0">al axis</tspan></text>
  <g>
    <line class="cls-8" x1="146.95" y1="210.2" x2="146.95" y2="366.11"/>
    <path class="cls-15" d="M146.95,364.76l2.7-1.64.06.09-1.75,4.41c-.34,1.54-.68,3.07-1.01,4.61-.34-1.54-.68-3.07-1.01-4.61l-1.75-4.41.05-.09,2.72,1.64Z"/>
  </g>
  <g>
    <line class="cls-8" x1="83.95" y1="210.2" x2="146.95" y2="210.2"/>
    <polygon class="cls-15" points="86.05 212.98 84.87 210.2 86.05 207.42 79.47 210.2 86.05 212.98"/>
    <path class="cls-15" d="M146.95,213.02c1.56,0,2.82-1.26,2.82-2.82s-1.26-2.82-2.82-2.82-2.82,1.26-2.82,2.82,1.26,2.82,2.82,2.82Z"/>
  </g>
  <text class="cls-16" transform="translate(155.95 210.2)"><tspan x="0" y="0">C</tspan></text>
  <text class="cls-16" transform="translate(143.71 383.2)"><tspan x="0" y="0">y</tspan></text>
  <text class="cls-16" transform="translate(70.46 212.47)"><tspan x="0" y="0">x</tspan></text>
  <g>
    <line class="cls-5" x1="75.67" y1="68.5" x2="64.17" y2="36.67"/>
    <path class="cls-20" d="M77.43,67.86c.35.98-.15,2.05-1.13,2.41-.98.35-2.05-.15-2.41-1.13s.15-2.05,1.13-2.41c.98-.35,2.05.15,2.41,1.13Z"/>
  </g>
  <g>
    <line class="cls-5" x1="145" y1="108.17" x2="174.51" y2="79.44"/>
    <path class="cls-20" d="M146.31,109.51c-.74.72-1.93.71-2.66-.04-.72-.74-.71-1.93.04-2.66.74-.72,1.93-.71,2.66.04s.71,1.93-.04,2.66Z"/>
  </g>
  <g>
    <line class="cls-5" x1="103.33" y1="66.33" x2="53" y2="114.33"/>
    <path class="cls-20" d="M102.04,64.97c.75-.72,1.94-.69,2.66.06s.69,1.94-.06,2.66c-.75.72-1.94.69-2.66-.06-.72-.75-.69-1.94.06-2.66Z"/>
  </g>
  <g>
    <line class="cls-7" x1="192.67" y1="351.1" x2="222.18" y2="317.5"/>
    <path class="cls-14" d="M194.08,352.34c-.69.78-1.87.86-2.65.17-.78-.69-.86-1.87-.17-2.65s1.87-.86,2.65-.17c.78.69.86,1.87.17,2.65Z"/>
  </g>
  <g>
    <line class="cls-7" x1="149.85" y1="308.21" x2="111.67" y2="318.33"/>
    <path class="cls-14" d="M149.37,306.4c1-.27,2.03.33,2.3,1.34.27,1-.33,2.03-1.34,2.3-1,.27-2.03-.33-2.3-1.34-.27-1,.33-2.03,1.34-2.3Z"/>
  </g>
  <g>
    <line class="cls-5" x1="290.98" y1="388" x2="303.67" y2="406.17"/>
    <path class="cls-20" d="M289.43,389.08c-.59-.85-.39-2.02.46-2.62.85-.59,2.02-.39,2.62.46.59.85.39,2.02-.46,2.62-.85.59-2.02.39-2.62-.46Z"/>
  </g>
  <g>
    <line class="cls-4" x1="89.26" y1="28" x2="111.22" y2="28"/>
    <text class="cls-22" transform="translate(99.65 36.86)"><tspan x="0" y="0">2</tspan></text>
    <text class="cls-23" transform="translate(53.37 31.79)"><tspan x="0" y="0">0.045</tspan></text>
    <text class="cls-24" transform="translate(104.97 25.98)"><tspan x="0" y="0">x</tspan></text>
    <text class="cls-25" transform="translate(90.44 22.07)"><tspan x="0" y="0">M</tspan></text>
    <text class="cls-25" transform="translate(91.78 43.64)"><tspan class="cls-28" x="0" y="0">h</tspan><tspan x="12.27" y="0">t</tspan></text>
    <text class="cls-26" transform="translate(45.11 31.79)"><tspan x="0" y="0">−</tspan></text>
  </g>
  <g>
    <line class="cls-4" x1="236.84" y1="306.49" x2="258.67" y2="306.49"/>
    <text class="cls-22" transform="translate(247.17 315.34)"><tspan x="0" y="0">2</tspan></text>
    <text class="cls-23" transform="translate(216.18 310.28)"><tspan x="0" y="0">0.5</tspan></text>
    <text class="cls-24" transform="translate(252.45 304.47)"><tspan x="0" y="0">x</tspan></text>
    <text class="cls-25" transform="translate(238.01 300.56)"><tspan x="0" y="0">M</tspan></text>
    <text class="cls-25" transform="translate(239.34 322.13)"><tspan class="cls-27" x="0" y="0">h</tspan><tspan class="cls-21" x="12.27" y="0">t</tspan></text>
  </g>
  <g>
    <line class="cls-4" x1="88.02" y1="335.43" x2="109.85" y2="335.43"/>
    <text class="cls-22" transform="translate(98.35 344.28)"><tspan x="0" y="0">3</tspan></text>
    <text class="cls-23" transform="translate(67.36 339.22)"><tspan x="0" y="0">0.5</tspan></text>
    <text class="cls-24" transform="translate(103.63 333.41)"><tspan x="0" y="0">x</tspan></text>
    <text class="cls-25" transform="translate(89.19 329.5)"><tspan x="0" y="0">M</tspan></text>
    <text class="cls-25" transform="translate(90.52 351.07)"><tspan class="cls-29" x="0" y="0">h</tspan><tspan x="12.27" y="0">t</tspan></text>
  </g>
  <g>
    <line class="cls-4" x1="191.72" y1="69.93" x2="213.71" y2="69.93"/>
    <text class="cls-22" transform="translate(202.12 78.78)"><tspan x="0" y="0">2</tspan></text>
    <text class="cls-23" transform="translate(170.9 73.72)"><tspan x="0" y="0">0.5</tspan></text>
    <text class="cls-24" transform="translate(207.44 67.91)"><tspan x="0" y="0">x</tspan></text>
    <text class="cls-25" transform="translate(192.9 64)"><tspan x="0" y="0">M</tspan></text>
    <text class="cls-25" transform="translate(194.52 85.46)"><tspan class="cls-18" x="0" y="0">h</tspan><tspan x="12.27" y="0">t</tspan></text>
    <text class="cls-26" transform="translate(162.62 73.72)"><tspan x="0" y="0">−</tspan></text>
  </g>
  <g>
    <line class="cls-4" x1="31.33" y1="122.92" x2="53.33" y2="122.92"/>
    <text class="cls-22" transform="translate(41.74 131.78)"><tspan x="0" y="0">2</tspan></text>
    <text class="cls-23" transform="translate(10.51 126.72)"><tspan x="0" y="0">0.5</tspan></text>
    <text class="cls-24" transform="translate(47.06 120.91)"><tspan x="0" y="0">x</tspan></text>
    <text class="cls-25" transform="translate(32.51 117)"><tspan x="0" y="0">M</tspan></text>
    <text class="cls-25" transform="translate(33.85 138.57)"><tspan class="cls-18" x="0" y="0">h</tspan><tspan x="12.27" y="0">t</tspan></text>
    <text class="cls-26" transform="translate(2.24 126.72)"><tspan x="0" y="0">−</tspan></text>
  </g>
  <g>
    <line class="cls-4" x1="310.47" y1="419.15" x2="332.3" y2="419.15"/>
    <text class="cls-22" transform="translate(320.8 428)"><tspan x="0" y="0">2</tspan></text>
    <text class="cls-23" transform="translate(283.24 422.94)"><tspan x="0" y="0">0.41</tspan></text>
    <text class="cls-24" transform="translate(326.08 417.13)"><tspan x="0" y="0">x</tspan></text>
    <text class="cls-25" transform="translate(311.64 413.22)"><tspan x="0" y="0">M</tspan></text>
    <text class="cls-25" transform="translate(312.97 434.79)"><tspan class="cls-27" x="0" y="0">h</tspan><tspan class="cls-21" x="12.27" y="0">t</tspan></text>
    <text class="cls-26" transform="translate(275.03 422.94)"><tspan x="0" y="0">−</tspan></text>
  </g>
</svg>