<?xml version="1.0" encoding="UTF-8"?>
<svg id="Layer_1" data-name="Layer 1" xmlns="http://www.w3.org/2000/svg" viewBox="0 0 297.33 380">
  <defs>
    <style>
      .cls-1 {
        stroke-linejoin: round;
        stroke-width: 3px;
      }

      .cls-1, .cls-2, .cls-3, .cls-4, .cls-5, .cls-6, .cls-7, .cls-8, .cls-9, .cls-10, .cls-11, .cls-12 {
        fill: none;
      }

      .cls-1, .cls-4, .cls-13, .cls-5, .cls-10, .cls-12 {
        stroke: #231f20;
      }

      .cls-14 {
        letter-spacing: .01em;
      }

      .cls-2, .cls-3, .cls-4, .cls-13, .cls-5, .cls-6, .cls-7, .cls-8, .cls-9, .cls-10, .cls-11, .cls-12 {
        stroke-miterlimit: 10;
      }

      .cls-2, .cls-3, .cls-11 {
        stroke: #009444;
      }

      .cls-3, .cls-4, .cls-13, .cls-5, .cls-6, .cls-7, .cls-9, .cls-10, .cls-12 {
        stroke-width: .75px;
      }

      .cls-4 {
        stroke-dasharray: 30 5 5 5 80 30;
      }

      .cls-13, .cls-15 {
        fill: #fff;
      }

      .cls-16, .cls-17, .cls-18, .cls-19 {
        fill: #231f20;
      }

      .cls-5 {
        stroke-dasharray: 40 10 5 10;
      }

      .cls-6, .cls-7, .cls-9 {
        stroke: #3a54a4;
      }

      .cls-20 {
        fill: #3a54a4;
        font-family: AtkinsonHyperlegibleNext-Light, 'Atkinson Hyperlegible Next';
        font-size: 12px;
        font-weight: 300;
      }

      .cls-17, .cls-18 {
        font-size: 14px;
      }

      .cls-17, .cls-18, .cls-19, .cls-21 {
        font-style: italic;
      }

      .cls-17, .cls-19 {
        font-family: AtkinsonHyperlegibleNext-RegularItalic, 'Atkinson Hyperlegible Next';
      }

      .cls-18 {
        font-family: TimesNewRomanPS-ItalicMT, 'Times New Roman';
      }

      .cls-19 {
        letter-spacing: -.02em;
      }

      .cls-19, .cls-21, .cls-22, .cls-23 {
        font-size: 16px;
      }

      .cls-21 {
        font-family: MyriadPro-It, 'Myriad Pro';
      }

      .cls-21, .cls-24, .cls-22 {
        fill: #009444;
      }

      .cls-7 {
        stroke-dasharray: 9.69 3.88;
      }

      .cls-8 {
        stroke: #be1e2d;
        stroke-width: 1.5px;
      }

      .cls-9 {
        stroke-dasharray: 9.69 3.88 9.69 3.88;
      }

      .cls-25, .cls-23 {
        fill: #be1e2d;
      }

      .cls-22 {
        font-family: AtkinsonHyperlegibleNext-Regular, 'Atkinson Hyperlegible Next';
      }

      .cls-26 {
        letter-spacing: -.02em;
      }

      .cls-23 {
        font-family: AtkinsonHyperlegibleNext-SemiBold, 'Atkinson Hyperlegible Next';
        font-weight: 600;
      }

      .cls-11 {
        stroke-width: .9px;
      }

      .cls-12 {
        stroke-dasharray: 30 5 5 5 60;
      }
    </style>
  </defs>
  <g>
    <line class="cls-15" x1="6.83" y1="262.11" x2="170.99" y2="165.89"/>
    <g>
      <line class="cls-6" x1="6.83" y1="262.11" x2="11.14" y2="259.58"/>
      <line class="cls-7" x1="14.48" y1="257.62" x2="24.52" y2="251.74"/>
      <line class="cls-9" x1="26.19" y1="250.76" x2="165.01" y2="169.4"/>
      <line class="cls-6" x1="166.68" y1="168.42" x2="170.99" y2="165.89"/>
    </g>
  </g>
  <path class="cls-11" d="M148,213.8c0-11-5.37-20.74-13.67-26.8"/>
  <text class="cls-17" transform="translate(92.13 70)"><tspan x="0" y="0">1</tspan></text>
  <text class="cls-17" transform="translate(77.62 207.21)"><tspan x="0" y="0">2</tspan></text>
  <text class="cls-17" transform="translate(75.74 364.34)"><tspan x="0" y="0">3</tspan></text>
  <g>
    <line class="cls-2" x1="33" y1="108.2" x2="39.9" y2="112.23"/>
    <polygon class="cls-24" points="33.17 110.66 27.64 105.08 35.22 107.14 33.17 110.66"/>
  </g>
  <g>
    <line class="cls-2" x1="20.64" y1="100.95" x2="13.86" y2="97"/>
    <polygon class="cls-24" points="20.47 98.5 26 104.08 18.42 102.01 20.47 98.5"/>
  </g>
  <text class="cls-22" transform="translate(44 115)"><tspan x="0" y="0">t</tspan></text>
  <line class="cls-3" x1="106.33" y1="70" x2="278" y2="70"/>
  <line class="cls-3" x1="116" y1="358.8" x2="278" y2="358.83"/>
  <g>
    <line class="cls-3" x1="269" y1="76.64" x2="269" y2="352.18"/>
    <polygon class="cls-24" points="266.82 78.13 269 70 271.18 78.13 266.82 78.13"/>
    <polygon class="cls-24" points="266.82 350.69 269 358.82 271.18 350.69 266.82 350.69"/>
  </g>
  <g>
    <line class="cls-4" x1="88.95" y1="133" x2="89.01" y2="22.11"/>
    <path class="cls-16" d="M89.01,23.46l-2.7,1.64-.06-.09,1.75-4.41c.34-1.54.68-3.07,1.02-4.6.34,1.54.67,3.07,1.01,4.61l1.75,4.41-.05.09-2.72-1.64Z"/>
  </g>
  <g>
    <line class="cls-10" x1="215" y1="214" x2="89.01" y2="214.02"/>
    <polygon class="cls-16" points="212.89 211.22 214.07 214 212.89 216.78 219.48 214 212.89 211.22"/>
    <path class="cls-16" d="M89.01,210.49c-1.95,0-3.52,1.58-3.52,3.53s1.58,3.52,3.53,3.52c1.95,0,3.52-1.58,3.52-3.53s-1.58-3.52-3.53-3.52Z"/>
  </g>
  <text class="cls-18" transform="translate(92.13 229.35)"><tspan x="0" y="0">C</tspan></text>
  <text class="cls-18" transform="translate(85.99 10.02)"><tspan x="0" y="0">y</tspan></text>
  <text class="cls-18" transform="translate(224 217.06)"><tspan x="0" y="0">x</tspan></text>
  <g>
    <line class="cls-2" x1="162.36" y1="315.29" x2="169.27" y2="319.31"/>
    <polygon class="cls-24" points="162.54 317.74 157 312.16 164.59 314.23 162.54 317.74"/>
  </g>
  <g>
    <line class="cls-2" x1="149.78" y1="307.95" x2="143" y2="304"/>
    <polygon class="cls-24" points="149.61 305.5 155.14 311.08 147.56 309.01 149.61 305.5"/>
  </g>
  <text class="cls-22" transform="translate(173.14 322)"><tspan x="0" y="0">t</tspan></text>
  <path class="cls-1" d="M89,70c-39.8,0-72,32.2-72,72s32.2,72,72,72c39.8,0,72,32.2,72,72s-32.2,72-72,72"/>
  <g>
    <line class="cls-5" x1="84.51" y1="142.43" x2="93.51" y2="142.43"/>
    <line class="cls-12" x1="89.01" y1="137.93" x2="89.01" y2="146.93"/>
  </g>
  <g>
    <line class="cls-10" x1="89" y1="142" x2="48.25" y2="93.1"/>
    <polygon class="cls-16" points="50.88 92.85 44 88 47.53 95.64 50.88 92.85"/>
  </g>
  <g>
    <line class="cls-5" x1="84.5" y1="286" x2="93.5" y2="286"/>
    <line class="cls-12" x1="89" y1="281.5" x2="89" y2="290.5"/>
  </g>
  <line class="cls-13" x1="89" y1="151" x2="89" y2="277"/>
  <line class="cls-12" x1="89" y1="295" x2="89" y2="376"/>
  <line class="cls-10" x1="80" y1="142" x2="53" y2="142"/>
  <line class="cls-10" x1="98" y1="142" x2="125" y2="142"/>
  <line class="cls-10" x1="98" y1="286" x2="125" y2="286"/>
  <line class="cls-10" x1="80" y1="286" x2="53" y2="286"/>
  <g>
    <line class="cls-10" x1="89" y1="286.97" x2="137.85" y2="326.8"/>
    <polygon class="cls-16" points="135.32 327.55 143 331 138.08 324.17 135.32 327.55"/>
  </g>
  <text class="cls-19" transform="translate(69.64 115)"><tspan x="0" y="0">r</tspan></text>
  <text class="cls-19" transform="translate(110.22 322)"><tspan x="0" y="0">r</tspan></text>
  <text class="cls-20" transform="translate(145.51 177.73) rotate(-29.85)"><tspan x="0" y="0">N</tspan><tspan class="cls-14" x="8.11" y="0">.A</tspan><tspan x="17.86" y="0">.</tspan></text>
  <text class="cls-21" transform="translate(149.07 200.4)"><tspan x="0" y="0">β</tspan></text>
  <g>
    <line class="cls-8" x1="88.92" y1="221.11" x2="88.9" y2="262.08"/>
    <polygon class="cls-25" points="83.67 260.54 88.9 269.61 94.14 260.55 83.67 260.54"/>
  </g>
  <g>
    <line class="cls-8" x1="88.92" y1="224.44" x2="88.91" y2="253.08"/>
    <polygon class="cls-25" points="83.67 251.54 88.9 260.61 94.14 251.55 83.67 251.54"/>
  </g>
  <text class="cls-23" transform="translate(3.29 279.45)"><tspan x="0" y="0">M = 30 Nm</tspan></text>
  <text class="cls-22" transform="translate(272.68 219.86)"><tspan x="0" y="0">4</tspan><tspan class="cls-26" x="9.82" y="0">r</tspan></text>
</svg>