<?xml version="1.0" encoding="UTF-8"?>
<svg id="Layer_1" data-name="Layer 1" xmlns="http://www.w3.org/2000/svg" viewBox="0 0 367.33 410">
  <defs>
    <style>
      .cls-1 {
        stroke-width: 2px;
      }

      .cls-1, .cls-2, .cls-3, .cls-4, .cls-5, .cls-6 {
        fill: none;
        stroke-miterlimit: 10;
      }

      .cls-1, .cls-4, .cls-6 {
        stroke: #231f20;
      }

      .cls-2, .cls-3 {
        stroke: #009444;
      }

      .cls-3, .cls-6 {
        stroke-width: .75px;
      }

      .cls-4 {
        stroke-width: 4px;
      }

      .cls-7, .cls-8, .cls-9 {
        fill: #231f20;
      }

      .cls-8 {
        font-family: AtkinsonHyperlegibleNext-RegularItalic, 'Atkinson Hyperlegible Next';
      }

      .cls-8, .cls-9 {
        font-size: 14px;
        font-style: italic;
      }

      .cls-9 {
        font-family: TimesNewRomanPS-ItalicMT, 'Times New Roman';
      }

      .cls-10 {
        letter-spacing: 0em;
      }

      .cls-10, .cls-11, .cls-12 {
        fill: #be1e2d;
      }

      .cls-10, .cls-13, .cls-12, .cls-14 {
        font-size: 16px;
      }

      .cls-10, .cls-12 {
        font-family: AtkinsonHyperlegibleNext-SemiBold, 'Atkinson Hyperlegible Next';
        font-weight: 600;
      }

      .cls-5 {
        stroke: #be1e2d;
        stroke-width: 1.5px;
      }

      .cls-15, .cls-13, .cls-14 {
        fill: #009444;
      }

      .cls-13, .cls-14 {
        font-family: AtkinsonHyperlegibleNext-Regular, 'Atkinson Hyperlegible Next';
      }

      .cls-14 {
        letter-spacing: 0em;
      }
    </style>
  </defs>
  <line class="cls-1" x1="286.33" y1="349" x2="140.67" y2="349"/>
  <text class="cls-8" transform="translate(57.74 55.95)"><tspan x="0" y="0">1</tspan></text>
  <text class="cls-8" transform="translate(149 55.95)"><tspan x="0" y="0">2</tspan></text>
  <text class="cls-8" transform="translate(128.67 359.01)"><tspan x="0" y="0">3</tspan></text>
  <text class="cls-8" transform="translate(290 359.18)"><tspan x="0" y="0">4</tspan></text>
  <polyline class="cls-4" points="70.33 61 142.33 61 142.33 349"/>
  <g>
    <line class="cls-2" x1="150.23" y1="97" x2="158.22" y2="97"/>
    <polygon class="cls-15" points="151.62 99.03 144.03 97 151.62 94.97 151.62 99.03"/>
  </g>
  <g>
    <line class="cls-2" x1="133.75" y1="97" x2="125.9" y2="97"/>
    <polygon class="cls-15" points="132.37 94.97 139.96 97 132.37 99.03 132.37 94.97"/>
  </g>
  <text class="cls-13" transform="translate(160.84 101.43)"><tspan x="0" y="0">2t</tspan></text>
  <g>
    <line class="cls-2" x1="97" y1="69.17" x2="97" y2="77.16"/>
    <polygon class="cls-15" points="94.97 70.56 97 62.97 99.03 70.56 94.97 70.56"/>
  </g>
  <g>
    <line class="cls-2" x1="97" y1="52.69" x2="97" y2="44.84"/>
    <polygon class="cls-15" points="99.03 51.3 97 58.89 94.97 51.3 99.03 51.3"/>
  </g>
  <g>
    <line class="cls-2" x1="234.33" y1="355.34" x2="234.33" y2="363.33"/>
    <polygon class="cls-15" points="232.3 356.72 234.33 349.13 236.37 356.72 232.3 356.72"/>
  </g>
  <g>
    <line class="cls-2" x1="234.33" y1="340.86" x2="234.33" y2="333.01"/>
    <polygon class="cls-15" points="236.37 339.47 234.33 347.06 232.3 339.47 236.37 339.47"/>
  </g>
  <text class="cls-13" transform="translate(89.57 90.55)"><tspan x="0" y="0">2t</tspan></text>
  <text class="cls-13" transform="translate(231.73 329.01)"><tspan x="0" y="0">t</tspan></text>
  <line class="cls-3" x1="70.08" y1="50" x2="70.08" y2="16"/>
  <line class="cls-3" x1="142.33" y1="50" x2="142.33" y2="16"/>
  <g>
    <line class="cls-3" x1="76.73" y1="24.22" x2="135.69" y2="24.22"/>
    <polygon class="cls-15" points="78.22 26.4 70.08 24.22 78.22 22.04 78.22 26.4"/>
    <polygon class="cls-15" points="134.2 26.4 142.33 24.22 134.2 22.04 134.2 26.4"/>
  </g>
  <line class="cls-3" x1="159.67" y1="61" x2="349.33" y2="61"/>
  <line class="cls-3" x1="305.56" y1="349.82" x2="349.33" y2="349.82"/>
  <g>
    <line class="cls-3" x1="340.33" y1="67.64" x2="340.33" y2="343.18"/>
    <polygon class="cls-15" points="338.15 69.13 340.33 61 342.51 69.13 338.15 69.13"/>
    <polygon class="cls-15" points="338.15 341.69 340.33 349.82 342.51 341.69 338.15 341.69"/>
  </g>
  <text class="cls-13" transform="translate(94.45 18.19)"><tspan x="0" y="0">h/2</tspan></text>
  <text class="cls-13" transform="translate(345.33 205)"><tspan x="0" y="0">2h</tspan></text>
  <line class="cls-3" x1="286.33" y1="359.18" x2="286.33" y2="393.18"/>
  <line class="cls-3" x1="142.33" y1="359.18" x2="142.33" y2="393.18"/>
  <g>
    <line class="cls-3" x1="279.69" y1="384.95" x2="148.98" y2="384.95"/>
    <polygon class="cls-15" points="278.2 382.77 286.33 384.95 278.2 387.13 278.2 382.77"/>
    <polygon class="cls-15" points="150.46 382.77 142.33 384.95 150.46 387.13 150.46 382.77"/>
  </g>
  <text class="cls-13" transform="translate(210.84 404.1)"><tspan x="0" y="0">h</tspan></text>
  <g>
    <line class="cls-6" x1="151.33" y1="205" x2="151.33" y2="270.89"/>
    <path class="cls-7" d="M151.33,269.54l2.7-1.64.06.09-1.75,4.41c-.34,1.54-.68,3.07-1.01,4.61-.34-1.54-.68-3.07-1.01-4.61l-1.75-4.41.05-.09,2.72,1.64Z"/>
  </g>
  <g>
    <line class="cls-6" x1="88.33" y1="205" x2="151.33" y2="205"/>
    <polygon class="cls-7" points="90.44 207.78 89.26 205 90.44 202.22 83.86 205 90.44 207.78"/>
    <path class="cls-7" d="M151.33,207.82c1.56,0,2.82-1.26,2.82-2.82s-1.26-2.82-2.82-2.82-2.82,1.26-2.82,2.82,1.26,2.82,2.82,2.82Z"/>
  </g>
  <text class="cls-9" transform="translate(160.33 205)"><tspan x="0" y="0">C</tspan></text>
  <text class="cls-9" transform="translate(149.21 286.02)"><tspan x="0" y="0">y</tspan></text>
  <text class="cls-9" transform="translate(74.84 207.27)"><tspan x="0" y="0">x</tspan></text>
  <line class="cls-3" x1="187.33" y1="205" x2="313.33" y2="205"/>
  <g>
    <line class="cls-3" x1="313.33" y1="211.64" x2="313.33" y2="343.18"/>
    <polygon class="cls-15" points="311.15 213.13 313.33 205 315.51 213.13 311.15 213.13"/>
    <polygon class="cls-15" points="311.15 341.69 313.33 349.82 315.51 341.69 311.15 341.69"/>
  </g>
  <g>
    <line class="cls-2" x1="132.87" y1="241" x2="124" y2="241"/>
    <polygon class="cls-15" points="131.28 238.68 139.96 241 131.28 243.32 131.28 238.68"/>
  </g>
  <g>
    <line class="cls-2" x1="167.64" y1="240.98" x2="158.78" y2="240.98"/>
    <polygon class="cls-15" points="160.36 238.65 151.69 240.98 160.36 243.3 160.36 238.65"/>
  </g>
  <g>
    <text class="cls-14" transform="translate(318.09 282.88)"><tspan x="0" y="0">y</tspan></text>
    <line class="cls-2" x1="317.55" y1="271.12" x2="325.65" y2="271.12"/>
  </g>
  <g>
    <text class="cls-13" transform="translate(170.75 246.88)"><tspan x="0" y="0">x</tspan></text>
    <line class="cls-2" x1="170.21" y1="235.12" x2="178.31" y2="235.12"/>
  </g>
  <g>
    <line class="cls-5" x1="61.33" y1="205" x2="14.87" y2="205"/>
    <polygon class="cls-11" points="16.4 199.76 7.33 205 16.4 210.24 16.4 199.76"/>
  </g>
  <g>
    <line class="cls-5" x1="70.33" y1="205" x2="23.87" y2="205"/>
    <polygon class="cls-11" points="25.4 199.76 16.33 205 25.4 210.24 25.4 199.76"/>
  </g>
  <text class="cls-12" transform="translate(16.33 196)"><tspan x="0" y="0">M</tspan></text>
  <text class="cls-10" transform="translate(29.93 201.33) scale(.58)"><tspan x="0" y="0">x</tspan></text>
</svg>