<?xml version="1.0" encoding="UTF-8"?>
<svg id="Layer_1" data-name="Layer 1" xmlns="http://www.w3.org/2000/svg" xmlns:xlink="http://www.w3.org/1999/xlink" viewBox="0 0 548 199.11">
  <defs>
    <style>
      .cls-1 {
        letter-spacing: -.01em;
      }

      .cls-2 {
        stroke-width: 2px;
      }

      .cls-2, .cls-3 {
        stroke-miterlimit: 10;
      }

      .cls-2, .cls-3, .cls-4, .cls-5, .cls-6, .cls-7, .cls-8 {
        fill: none;
      }

      .cls-2, .cls-5, .cls-9, .cls-8 {
        stroke: #231f20;
      }

      .cls-10 {
        letter-spacing: 0em;
      }

      .cls-3, .cls-5, .cls-7 {
        stroke-width: .75px;
      }

      .cls-3, .cls-7 {
        stroke: #009444;
      }

      .cls-11 {
        fill: url(#_10_lpi_10_);
      }

      .cls-12, .cls-13 {
        letter-spacing: -.03em;
      }

      .cls-14, .cls-15, .cls-16, .cls-17 {
        fill: #231f20;
      }

      .cls-18, .cls-19, .cls-13 {
        fill: #3a54a4;
      }

      .cls-5, .cls-9, .cls-6, .cls-7 {
        stroke-linejoin: round;
      }

      .cls-15 {
        letter-spacing: -.01em;
      }

      .cls-15, .cls-19, .cls-16, .cls-17, .cls-13, .cls-20 {
        font-size: 12px;
      }

      .cls-15, .cls-17 {
        font-family: AtkinsonHyperlegibleNext-RegularItalic, 'Atkinson Hyperlegible Next';
        font-style: italic;
      }

      .cls-9 {
        fill: #e6e7e8;
        stroke-width: 1.5px;
      }

      .cls-6 {
        stroke: #3a54a4;
        stroke-width: 3px;
      }

      .cls-21 {
        letter-spacing: 0em;
      }

      .cls-22 {
        letter-spacing: -.02em;
      }

      .cls-19, .cls-16, .cls-13 {
        font-family: AtkinsonHyperlegibleNext-Medium, 'Atkinson Hyperlegible Next';
        font-weight: 500;
      }

      .cls-23, .cls-20 {
        fill: #009444;
      }

      .cls-8 {
        stroke-width: .72px;
      }

      .cls-24 {
        letter-spacing: .01em;
      }

      .cls-20 {
        font-family: AtkinsonHyperlegibleNext-Regular, 'Atkinson Hyperlegible Next';
      }

      .cls-25 {
        letter-spacing: .02em;
      }

      .cls-26 {
        letter-spacing: -.02em;
      }
    </style>
    <pattern id="_10_lpi_10_" data-name="10 lpi 10%" x="0" y="0" width="72" height="72" patternTransform="translate(-503.55 -8204.89) rotate(-47.3) scale(.69) skewX(-4.58)" patternUnits="userSpaceOnUse" viewBox="0 0 72 72">
      <g>
        <rect class="cls-4" width="72" height="72"/>
        <g>
          <line class="cls-8" x1="71.75" y1="68.4" x2="144.25" y2="68.4"/>
          <line class="cls-8" x1="71.75" y1="54" x2="144.25" y2="54"/>
          <line class="cls-8" x1="71.75" y1="39.6" x2="144.25" y2="39.6"/>
          <line class="cls-8" x1="71.75" y1="25.2" x2="144.25" y2="25.2"/>
          <line class="cls-8" x1="71.75" y1="10.8" x2="144.25" y2="10.8"/>
          <line class="cls-8" x1="71.75" y1="61.2" x2="144.25" y2="61.2"/>
          <line class="cls-8" x1="71.75" y1="46.8" x2="144.25" y2="46.8"/>
          <line class="cls-8" x1="71.75" y1="32.4" x2="144.25" y2="32.4"/>
          <line class="cls-8" x1="71.75" y1="18" x2="144.25" y2="18"/>
          <line class="cls-8" x1="71.75" y1="3.6" x2="144.25" y2="3.6"/>
        </g>
        <g>
          <line class="cls-8" x1="-.25" y1="68.4" x2="72.25" y2="68.4"/>
          <line class="cls-8" x1="-.25" y1="54" x2="72.25" y2="54"/>
          <line class="cls-8" x1="-.25" y1="39.6" x2="72.25" y2="39.6"/>
          <line class="cls-8" x1="-.25" y1="25.2" x2="72.25" y2="25.2"/>
          <line class="cls-8" x1="-.25" y1="10.8" x2="72.25" y2="10.8"/>
          <line class="cls-8" x1="-.25" y1="61.2" x2="72.25" y2="61.2"/>
          <line class="cls-8" x1="-.25" y1="46.8" x2="72.25" y2="46.8"/>
          <line class="cls-8" x1="-.25" y1="32.4" x2="72.25" y2="32.4"/>
          <line class="cls-8" x1="-.25" y1="18" x2="72.25" y2="18"/>
          <line class="cls-8" x1="-.25" y1="3.6" x2="72.25" y2="3.6"/>
        </g>
        <g>
          <line class="cls-8" x1="-72.25" y1="68.4" x2=".25" y2="68.4"/>
          <line class="cls-8" x1="-72.25" y1="54" x2=".25" y2="54"/>
          <line class="cls-8" x1="-72.25" y1="39.6" x2=".25" y2="39.6"/>
          <line class="cls-8" x1="-72.25" y1="25.2" x2=".25" y2="25.2"/>
          <line class="cls-8" x1="-72.25" y1="10.8" x2=".25" y2="10.8"/>
          <line class="cls-8" x1="-72.25" y1="61.2" x2=".25" y2="61.2"/>
          <line class="cls-8" x1="-72.25" y1="46.8" x2=".25" y2="46.8"/>
          <line class="cls-8" x1="-72.25" y1="32.4" x2=".25" y2="32.4"/>
          <line class="cls-8" x1="-72.25" y1="18" x2=".25" y2="18"/>
          <line class="cls-8" x1="-72.25" y1="3.6" x2=".25" y2="3.6"/>
        </g>
      </g>
    </pattern>
  </defs>
  <g>
    <line class="cls-5" x1="316.22" y1="49.93" x2="256.06" y2="17.67"/>
    <path class="cls-14" d="M257.24,18.3l.17,3.16h-.11s-3.06-3.61-3.06-3.61c-1.19-1.02-2.39-2.05-3.58-3.07,1.51.43,3.02.86,4.54,1.28l4.71.54.06.08-2.73,1.62Z"/>
  </g>
  <g>
    <line class="cls-5" x1="316.22" y1="75.01" x2="316.22" y2="113.89"/>
    <path class="cls-14" d="M316.22,112.54l2.7-1.64.06.09-1.75,4.41c-.34,1.54-.68,3.07-1.01,4.61-.34-1.54-.68-3.07-1.01-4.61l-1.75-4.41.05-.09,2.72,1.64Z"/>
  </g>
  <polygon class="cls-11" points="300.78 4.19 357.28 34.8 357.28 59.63 336.89 50.58 336.72 90.67 300.78 73.2 300.78 4.19"/>
  <rect class="cls-2" x="459.22" y="64.67" width="36" height="72"/>
  <line class="cls-2" x1="531.22" y1="64.67" x2="495.22" y2="64.67"/>
  <line class="cls-2" x1="423.22" y1="136.67" x2="459.22" y2="136.67"/>
  <g>
    <line class="cls-5" x1="477.22" y1="100.67" x2="477.22" y2="157.55"/>
    <path class="cls-14" d="M477.22,156.21l2.7-1.64.06.09-1.75,4.41c-.34,1.54-.68,3.07-1.01,4.61-.34-1.54-.68-3.07-1.01-4.61l-1.75-4.41.05-.09,2.72,1.64Z"/>
  </g>
  <text class="cls-15" transform="translate(474.22 171.67)"><tspan x="0" y="0">y</tspan></text>
  <g>
    <line class="cls-5" x1="477.22" y1="100.67" x2="432.34" y2="100.67"/>
    <path class="cls-14" d="M433.68,100.67l1.64,2.7-.09.06-4.41-1.75c-1.54-.34-3.07-.68-4.61-1.01,1.54-.34,3.07-.68,4.61-1.01l4.41-1.75.09.05-1.64,2.72Z"/>
  </g>
  <text class="cls-17" transform="translate(416.78 102.78)"><tspan x="0" y="0">x</tspan></text>
  <g>
    <line class="cls-3" x1="465.88" y1="84.44" x2="472.45" y2="84.44"/>
    <polygon class="cls-23" points="466.92 85.97 461.23 84.44 466.92 82.92 466.92 85.97"/>
  </g>
  <g>
    <line class="cls-3" x1="453.36" y1="84.44" x2="446.9" y2="84.44"/>
    <polygon class="cls-23" points="452.32 82.92 458.01 84.44 452.32 85.97 452.32 82.92"/>
  </g>
  <text class="cls-20" transform="translate(439.11 87.95)"><tspan x="0" y="0">t</tspan></text>
  <g>
    <line class="cls-3" x1="459.66" y1="56.78" x2="459.66" y2="38.78"/>
    <line class="cls-3" x1="495.66" y1="56.78" x2="495.66" y2="38.78"/>
    <g>
      <line class="cls-3" x1="466.31" y1="45.78" x2="489.02" y2="45.78"/>
      <polygon class="cls-23" points="467.79 47.96 459.66 45.78 467.79 43.6 467.79 47.96"/>
      <polygon class="cls-23" points="487.53 47.96 495.66 45.78 487.53 43.6 487.53 47.96"/>
    </g>
  </g>
  <text class="cls-20" transform="translate(468.22 37.67)"><tspan x="0" y="0">d/2</tspan></text>
  <line class="cls-3" x1="531.22" y1="56.78" x2="531.22" y2="38.78"/>
  <g>
    <line class="cls-3" x1="501.87" y1="45.78" x2="524.58" y2="45.78"/>
    <polygon class="cls-23" points="503.35 47.96 495.22 45.78 503.35 43.6 503.35 47.96"/>
    <polygon class="cls-23" points="523.09 47.96 531.22 45.78 523.09 43.6 523.09 47.96"/>
  </g>
  <text class="cls-20" transform="translate(503.78 37.67)"><tspan x="0" y="0">d/2</tspan></text>
  <g>
    <line class="cls-3" x1="414.22" y1="64.67" x2="396.22" y2="64.67"/>
    <line class="cls-3" x1="414.22" y1="136.67" x2="396.22" y2="136.67"/>
    <g>
      <line class="cls-3" x1="403.22" y1="71.31" x2="403.22" y2="130.02"/>
      <polygon class="cls-23" points="401.04 72.8 403.22 64.67 405.4 72.8 401.04 72.8"/>
      <polygon class="cls-23" points="401.04 128.54 403.22 136.67 405.4 128.54 401.04 128.54"/>
    </g>
  </g>
  <text class="cls-20" transform="translate(387.22 100.67)"><tspan x="0" y="0">d</tspan></text>
  <g>
    <line class="cls-3" x1="459.22" y1="145.67" x2="459.22" y2="163.67"/>
    <line class="cls-3" x1="423.22" y1="145.67" x2="423.22" y2="163.67"/>
    <g>
      <line class="cls-3" x1="452.58" y1="156.67" x2="429.87" y2="156.67"/>
      <polygon class="cls-23" points="451.09 154.49 459.22 156.67 451.09 158.85 451.09 154.49"/>
      <polygon class="cls-23" points="431.35 154.49 423.22 156.67 431.35 158.85 431.35 154.49"/>
    </g>
  </g>
  <text class="cls-20" transform="translate(432.22 172.67)"><tspan x="0" y="0">d/2</tspan></text>
  <text class="cls-17" transform="translate(533.55 63.11)"><tspan x="0" y="0">1</tspan></text>
  <text class="cls-17" transform="translate(449.75 63.11)"><tspan x="0" y="0">2</tspan></text>
  <text class="cls-17" transform="translate(497 149.04)"><tspan x="0" y="0">3</tspan></text>
  <text class="cls-17" transform="translate(412.64 149.04)"><tspan x="0" y="0">4</tspan></text>
  <text class="cls-16" transform="translate(434.45 191.61)"><tspan x="0" y="0">C</tspan><tspan class="cls-1" x="7.81" y="0">R</tspan><tspan class="cls-21" x="15.24" y="0">OS</tspan><tspan class="cls-25" x="31.19" y="0">S</tspan><tspan class="cls-21" x="38.68" y="0">-S</tspan><tspan class="cls-22" x="50.28" y="0">E</tspan><tspan class="cls-24" x="56.99" y="0">C</tspan><tspan class="cls-10" x="64.98" y="0">T</tspan><tspan class="cls-26" x="71.95" y="0">I</tspan><tspan class="cls-21" x="76.54" y="0">ON</tspan></text>
  <polygon class="cls-9" points="290.22 55.36 29.22 135.67 65.22 153.67 326.22 73.36 290.22 55.36"/>
  <polygon class="cls-9" points="47.22 99.67 47.22 144.67 308.22 64.36 308.22 18.67 47.22 99.67"/>
  <polygon class="cls-9" points="65.22 108.67 65.22 153.67 326.22 73.36 326.22 27.67 65.22 108.67"/>
  <polygon class="cls-9" points="308.22 18.67 47.22 99.67 83.22 117.67 344.22 35.83 308.22 18.67"/>
  <line class="cls-7" x1="65.22" y1="160.55" x2="65.22" y2="184.78"/>
  <g>
    <line class="cls-7" x1="71.57" y1="175.33" x2="205.87" y2="134.01"/>
    <polygon class="cls-23" points="73.63 176.97 65.22 177.28 72.35 172.81 73.63 176.97"/>
    <polygon class="cls-23" points="205.09 136.53 212.22 132.05 203.81 132.36 205.09 136.53"/>
  </g>
  <text class="cls-20" transform="translate(142.18 168)"><tspan x="0" y="0">L/2</tspan></text>
  <g>
    <line class="cls-7" x1="218.55" y1="130.04" x2="320.46" y2="97.69"/>
    <polygon class="cls-23" points="220.63 131.67 212.22 132.05 219.31 127.51 220.63 131.67"/>
    <polygon class="cls-23" points="319.7 100.22 326.79 95.68 318.38 96.07 319.7 100.22"/>
  </g>
  <text class="cls-20" transform="translate(271.25 126.29)"><tspan x="0" y="0">L/2</tspan></text>
  <line class="cls-7" x1="212.22" y1="92.17" x2="212.22" y2="136.34"/>
  <line class="cls-7" x1="326.22" y1="78.55" x2="326.22" y2="102.78"/>
  <g>
    <line class="cls-6" x1="244.18" y1="107.92" x2="212.22" y2="91.95"/>
    <polygon class="cls-18" points="243.47 102.7 256.06 113.87 239.57 110.49 243.47 102.7"/>
  </g>
  <text class="cls-19" transform="translate(256.06 108.28)"><tspan x="0" y="0">2</tspan><tspan class="cls-12" x="6.74" y="0">P</tspan></text>
  <text class="cls-13" transform="translate(51.79 59)"><tspan x="0" y="0">P</tspan></text>
  <text class="cls-17" transform="translate(236.08 14.78)"><tspan x="0" y="0">x</tspan></text>
  <text class="cls-15" transform="translate(313.51 129.8)"><tspan x="0" y="0">y</tspan></text>
  <g>
    <line class="cls-5" x1="54.46" y1="124.84" x2="20.75" y2="133.27"/>
    <path class="cls-14" d="M22.05,132.94l2.25,2.22-.07.08-4.7-.63c-1.57.04-3.14.09-4.71.13,1.41-.7,2.81-1.4,4.22-2.1l3.85-2.77.1.02-.94,3.03Z"/>
  </g>
  <text class="cls-17" transform="translate(5.35 139.65)"><tspan x="0" y="0">z</tspan></text>
  <g>
    <line class="cls-6" x1="55.76" y1="133.99" x2="55.76" y2="74.73"/>
    <polygon class="cls-18" points="60.11 77.7 55.76 61.44 51.4 77.7 60.11 77.7"/>
  </g>
</svg>